<mxfile host="Electron" modified="2024-10-07T16:22:14.219Z" agent="Mozilla/5.0 (X11; Linux x86_64) AppleWebKit/537.36 (KHTML, like Gecko) draw.io/21.1.2 Chrome/106.0.5249.199 Electron/21.4.3 Safari/537.36" etag="eyer1lL8iQqScto-vc0j" version="21.1.2" type="device">
  <diagram name="Page-1" id="yrXjGfLOorTNUndLQwmg">
    <mxGraphModel dx="1972" dy="1129" grid="0" gridSize="10" guides="1" tooltips="1" connect="1" arrows="1" fold="1" page="1" pageScale="1" pageWidth="1100" pageHeight="850" math="0" shadow="0">
      <root>
        <mxCell id="0" />
        <mxCell id="1" parent="0" />
        <mxCell id="vPIFIaNN0rYwnKn2M_h0-1" value="" style="rounded=0;whiteSpace=wrap;html=1;" vertex="1" parent="1">
          <mxGeometry x="250" y="110" width="760" height="500" as="geometry" />
        </mxCell>
        <mxCell id="vPIFIaNN0rYwnKn2M_h0-22" value="" style="group" vertex="1" connectable="0" parent="1">
          <mxGeometry x="80" y="140" width="120" height="110" as="geometry" />
        </mxCell>
        <mxCell id="vPIFIaNN0rYwnKn2M_h0-6" value="" style="group" vertex="1" connectable="0" parent="vPIFIaNN0rYwnKn2M_h0-22">
          <mxGeometry width="120" height="60" as="geometry" />
        </mxCell>
        <mxCell id="vPIFIaNN0rYwnKn2M_h0-4" value="" style="rounded=0;whiteSpace=wrap;html=1;" vertex="1" parent="vPIFIaNN0rYwnKn2M_h0-6">
          <mxGeometry width="120" height="60" as="geometry" />
        </mxCell>
        <mxCell id="vPIFIaNN0rYwnKn2M_h0-5" value="" style="shape=image;verticalLabelPosition=bottom;labelBackgroundColor=default;verticalAlign=top;aspect=fixed;imageAspect=0;image=data:image/png,iVBORw0KGgoAAAANSUhEUgAAAWoAAACLCAMAAAB/aSNCAAAAYFBMVEX///83uugtuOcqt+ft+f3X8fuP1/JZxeu65vfj9ftGwOo6vOlfx+yy4vXP7/pty+2o3/T4/f6f2/Pz+/6C0vDI6/jd8/uT2PJNwuuA0fBryu2g3PPA6PfJ6/jh9ft3zu8jVOTZAAAQtUlEQVR4nO1daXuzuA4NZl9CIJBACC3//18OkM2S5Y3k5d62nPkwz0yJsQ9ClmRJ7Hal90K527CrOEI+O3CWvhDGHx37R6JPOEKCT47sp8x5gLHok0P/TASu8yIk/KRc+6nDDb1RvQvYRvVK2KheDRvVq2GjejVsVK+GjerVsFG9GjaqV8NG9WrYqF4NG9WrYaN6NWxUr4aN6tWwUb0aNqpXw0b1atioXg0b1atho3o1bFSvho3q1bBRvRo2qlfDRvVq2KheDRvVq2GjejVsVK+GjerV8JOorvx+XxwnFFG+qBCh9PLovRFec4mK6zzQ/hSbDWRNdXk+3We7j/JKcaE51WcfgJyEv6/DdMqJdyewcdZtvT/rp8vBi4JxCG6EZNj7z7/Grwnohq1OTQYHOlzzJ90etxTwDKyorvpjljxv4jInDYNIVnphSnU1cFOYkAhLzZuEzWviMc7CCQvTwo+yP6QMDTH+N0ua290Kngdl9UR+SfFcxqmw9JLPfz5xy2YdL4vmVFdRJ0x2mq2T7Wk5NKO6Glw0pJPj+zr4ts9r3bT+VvFyRxmFkiEYS4fpfnz1hJvJefjqUtlc0q4fpbjgyzASXhJMqfaurXS9LDkSwmVGdYmZdtiVf+3KKJPd97Gcq0qNzcgPqjFYWseGVMe1jOgbEQcfUO0soLraS4m+3SMphPUaUS0y7V4BSZ2a6PnmmUa5XlX8zPdMeiOq+wTPFs/FKa7vSbWvkazpTQ5z/CMDqgXt4bhH7s9e7eqIngdXbrqecA9q+gk/B5rqMjCYjcuv2l6qC61kzetFm4kB1cKOyBxepqNWT9L9Z3sp035mOMgLNNXVxXogW6muahPJmmbYAY2tp1pkOuUvqx3DG08/lHHth8aDvBZCUS1M1gR2VHvmt4BKU0u1OHlwlW8jRCzF+us++2wBQSTVS5i2k+qqs7gFCzmudVSLVh686NtqbW5L2iEH65feoalulgxkRXV1sFowa19ja6gWdis37eEVe/HW7OY9Ceb99POGYHoRQRTV0QKZdqwUSHUhbjH7ifO/xIVwQ6ipFphmyQldUqKbj/5KEg510zSXLhHJTv0dRk+un90hJUik+pxQVzPdSDZSfRTIHNfbNX0++vd51HSpYP6wy+NFVlJd4TebUrZxy0/OyYpTXM7uTVl+9wPeNN0a/94LCVlgSdvVdX3p2tSRGG8i1YSiHt3MNruMI3VhksrYNqe6F2x/1h65GErpH4XHzQoDqktsOLEUy/R8/+fgbhr4KH6Wd2gMIXZyFAgYHcPo+bji/ki76wLVkXAJY93efwzk5QXteJhLtYd5ZM4RP2/viKSLJb6W6rIWtAdtQNx1LXMaygy9wjtDP3N8KVIH3SUVpu8HhEWJqS5b/AKxAEde4mNK7AvGVGNC3IyKo53Ra8q6m/jJqS6xpc5CUc/OqCarmLFaEr+DYssyKPcBJmighokHQY1gqvGeSE/Xa0QdYEp1ju8Q0CFwvHe6N1qlVIvaI5QGMfJRDYa97K9Ih6ZgmBit25FMf7fHLy+iukReEBsk8a1c2BsMqS7RXsAa2WFDCeWHhfOFMqpF7dEqwkVFWysCd9AycIGWuqKXjTIGb8iRgkBU94ZMj0+3w8rUjOov9DOZUOwEv8+dxVBCtR3TOoCHDNisIH+ifcLBh68+pBrZnCxTPPoKRm1MqYZP6KGBaXjgFuxQ7mRUC0Eb1r3TQesMWeD+AmWR0c7kAycwJUj1Ge6uhPnOAVkSZlTn4A7w+RBzhQubpkNSLehpt3vr6LgCejTh/gK3XibX9zPA2wGpLqDEX6VjzAAurqFUI/1bCINCAAd+DjpTVAtRQqY4WzICHPD15nlAfwB5p3DmLwdUQ/3BEs18SxDfMqK6SuBUdYdK4CWYLyeorkTz8d10COjPvlaWwyeqzY3gZwZmFcOdV7653mF/tog0gjz0/gBQ7ZNCE6kW9LSrsi7MAF/vl2PRAElRa+oJ0gMvGEdRa+p5QtZni4HlVOGa3T1BtRA1dRVGjRFKL4bzfPmcBztZlFMNn9mgnbG9VIPtRp0YcQO0BS4E1YKVVy9luqw8P7oGQxe2cMQn1UhVUwEWCCnVwI5lmk1xt0CqK6g/9FOFi2OtSDWOHbuLmC6/+yKYonJz7Bqnvjyphjdv9fakjGr4zBw9EdZSjZxyg80LHi2lHqYax2MXaA+vPx4SNlPskHhR3QM7X+kT3HmQUA1iVjqTd4K1VMPdJj0YIAG/8CHVjhAcOxLTVKA6Na2YTCalGizYRP/JqAYy53YGe5atVDfozTQA/EGPqMakWDFd+kEiTSYjqQbmtqtzCnZyqkFUz2R3sZZq04QEGdxIQ7VFEnDZD+JpDz3qk2pogGhcxZkHCdUgaGVgyVhLdYlPOGwxSq2aar2B+oDfmfHs8FQDA8qlzx0AZFSDLUbnlU+wpnpJ+gRYdKOmeryXWZTJC0xSqx6DPjkFW4Nr8FhlVENNpPfkrBVIhXcxW7iBhmpV2JfDySo5SUI1M4jS/hOqTaS6Ig/jbRY96Kg2sgsiXQ4pGpKmOv1fUW0k1StQjQ5NyGmbZ+3d7kpT7fxfS/WCpEIAvQIx2BqJ9KbXj2+JTgxG1X+gri5tMvVIJnTb4nyR2mE+SbTHxLHTZpeg6M+eJNz0MapBOMHEQLe2QBalFfKLpqnGBwMHxdYoZF/Mv2AsyeridI7vvzzSVP8ju9rA8XrXhbmXdFmAcmFYcsH/R7E1NgLTjKVhczqX0qteVIOjk3e8RaDETCJk1o45DA4lhS36UqR6ShYL0NsiZ8ETiHbDQtQEEqrB/N+JgYAjEuVbSFBtJNUwoSddEu7EVM8JkCUul5B6cjjhjmWkGpBQHYH3ftDPVkY1DMPrThZ3C6Tah8fEBp6tAEQ1a2eRjJEGlmWBIBuIpQX9uCVUw6POVs+QNF4NzF5JbQIP+1MYwJOJ7y8AUu0+KMV2BaOzE3x4EU5zf0JCNXyiBgzJqIa2mDZxYMnZIriDaxBbFwCPBl5peQVSIYzMO4IBc/kxsoRqqKgMREV64AWtSf2+aC/VcKmOcRzuBWl6pHDGSBEBLpqOKiWQUA1NKG0aiILqPZiq/hjGXqrRC6zKeJNAnomKXVHK7gWGvSKIIaMa7etaDSKlGupBvQZZUGMOty/z8DI9R3AUgCtL7jsmDxAwx4nTPGRUw0wZxWtxg5fJqK5A6J6FOnMPnLCbUY3SxA/W2lpRNdBjO1BIkYRUK94pGdU7mHTCNKICs1hAzhV0MXTHR1/yY18p1dhWM/C4IFS1MHhrdLHUQapNfUqeangL1innivK0AdVfkAd19hFSjoZJvyit2HpnVFZ4CVsjOrUDQRgVT1KqPSgqSue8gun+kOoKel1q5xwmmpvmV6NUEDex5FpdTIdrGZTPIpG3V5FSjcM4qfzNx8n+KGkTvYKKw36caGtKNU6FdlvNNo56HqlLRIWtEVkZMGIn1SCwtgJQneNly7jOBYsIUi0Uusm4/hZKl03LjoQgRqKKjMc1EhxN4XOER4fnujAT1pE85QK6noDqHTqKZg6pQ8qjEBbHqci4VEziyERiDadxMR3OsmOslgUTymK8D6xd1pXzCzl8IMvTA8lSdGMEIW0BUv0ltHXphFG8gmhcg6n+FkrA2giTXfYZkUOxvER0XDJZq+kV7XwfUFOro1qs1QBqAu3KKe7QVJ4GIW0BUi2WK7us27+a4pXniM7lERLshbLeKaD7ipuXcR8k1EAWNebEkRNL6x5W9XnR5TlhnmttPxAP60gQ6ejxH8Pi+7G4Mj4dQ+KIF1Hti4fRLkuy4BpFUdEMoaw0XKC6EtNiGEuzeh7oeJmb7pEjWZTzX6lH5STDMfqaW/adogY2MeC41ne5yQUqOCNHOO9ibtIFxX5fHOuupSvxEdXk9J8nSvJUHrFs5ESdkz7bDUoHsumcQDcTmrNu0xn3hhX86A+uDXo3FZhN/lx3T3Rt0LCEqRb7nRmBqNBZ1ljEqqFQZZ289+TapCMZPj8E7RbtT+0x1aie0hQE1aVdC5rHfOwaCllnhDzSO0yoxsXVINxB9ztR3lqwMAh1rQdVd7bsoVm2ybJ+nndLwqilIT7/cnjj1zKNjKKaaGlisACqxO97QRbSP2v+9pjoXYOYNerE7RmAt4J1uXZphPXd28s1XU15XsC1bUvD8mqRd+uw7L5ew/azmE43AVuj1fIoqkcdYvDqw1NrunA1Ntm3wIQXNOo8mcz2NsSreaxpU2XB7eXPdUVnF10M/4v03z3R1xFmHfAek6xGuAyYjgd3AIQuaD/rNUY5oS47vGJwxv2r8WYAQgz+QSHYLD3KSkQBRYWueW5k2OmX9L75+VxLYKMuaqp8vmj3F8bmBs62VMNS+vliPi5U7kmf15l7V/vQ4JVQPb77gbyahiVBbNy/uroSbeceA6WD/4n+1SN1F2mPM+fmqJ5AmOKccil8UhIm5A5K+IPZSN60PKzRXdZep7Drnv8dk8//uxEHmWbN0mamw7RV+BTvIeomR68uvcxGrvzE/MpPVdMf4fuYOFQDv6kVfdsIJwf5/oUv9cB7CGGlX0E7+6gTnZN/mnTXx+167nfqw4u8adPJ45zGmZ1qxwmDh29rTPUI/5o9B7rNJ23r6M6dXKrLiJuqvhLIL4Zkdv4ft5kecHvRLPIDKM/7YzAcxn+C6175OQnVIHFfNPU4xjBcgmNx4jNrLKjeTRWr+2aaznCYBuq5UyK5VC+Y7/k536Ee1236rY4PoJzwmVHwMJZUyweSS/VH5/uDAVuvvNGm5JNS/SsBgjEGXT/k+LxU/zJ8jmre+vzs56N+CUCwWNmTTwdgPb+jiX4rwOGbbQMNAP71cO3T734/Yv6A3j5pjgP/zLRZmX8RMGHToPhOBpAB+9br8VsBDnwXZDg/AQ76t69MioCJrwZVSlLAkPAbjXV/K0CL2bdsPV5/mLQn/F3wTtoVg5N7aX5wedKKO2z19Nd2RT+hG/dzgA3cZYUzXucKH1RBgHlCBu1NfxWmtGCm4RqUY9+byguYvrClS3xGDZj/lq+Yz/kbag8ZVoNJOuV7cwaQmusctUd+a+Y/DY+0HVWXfZy+QJL5aBzmpvJTjhgVa/8p/fH6iID8M4EosYeWxVexHZN+3sKHZ6Qs+Uv2B/9CM2egKmoq4WuulNsBqmWYmBG/m46zcMmJQf/DX4Mci9kV745VhDOnXaocNUb5E2mN1VGZ42+KMUWt1K+DhxOFmJvUIH3iSOSGEeac2MmKpUPEqYdz0Ql5MiatdX4NxHTAOYegC6YT62udiV9ld+jC35hIgZm+V18X40BF0JFpD29/ReEnQZITLf86pjT8IbaRug3EpAMt6jXxg1HhdEAtZJlB2i+hY5h05PtVKGlxlDMt1a/7JE0oSHoJLmnq8dNR2GQNq/qX5y3NNS3T78QGfyxy48IKpj7nis3baLvBX3JeXohrs0R8pqj3n1GZJT6PF13/okxPKPcGzbjZs9hBga/QQLBZ+JdPuc61Th6Jr+ZS8I668gmWyj4u+1eQX3ApK0+Pmwam/Khy4qc84MOS5o+/DOempYp4p6TtTAiNqBBfQ/KxjSMROeZ/E15fh+mcxc6cm6s3OtdJ1vi25oKXN2E6j3MfaBoqyYKvv+SK61D5++YQjo5HOhrJYRcUX+dlxkLl98chuw/UdvX1dP6b9p0Oled5H2Gm/NRA7+E/+b3p+hn5IkMAAAAASUVORK5CYII=;" vertex="1" parent="vPIFIaNN0rYwnKn2M_h0-6">
          <mxGeometry x="20.93" y="15" width="78.13" height="30" as="geometry" />
        </mxCell>
        <mxCell id="vPIFIaNN0rYwnKn2M_h0-21" value="amazon-review-books Dataset" style="text;html=1;strokeColor=none;fillColor=none;align=center;verticalAlign=middle;whiteSpace=wrap;rounded=0;" vertex="1" parent="vPIFIaNN0rYwnKn2M_h0-22">
          <mxGeometry y="50" width="120" height="60" as="geometry" />
        </mxCell>
        <mxCell id="vPIFIaNN0rYwnKn2M_h0-26" value="" style="group" vertex="1" connectable="0" parent="1">
          <mxGeometry x="300" y="124" width="135.81" height="75" as="geometry" />
        </mxCell>
        <mxCell id="vPIFIaNN0rYwnKn2M_h0-8" value="" style="rounded=0;whiteSpace=wrap;html=1;" vertex="1" parent="vPIFIaNN0rYwnKn2M_h0-26">
          <mxGeometry y="15" width="120" height="60" as="geometry" />
        </mxCell>
        <mxCell id="vPIFIaNN0rYwnKn2M_h0-12" value="" style="shape=image;verticalLabelPosition=bottom;labelBackgroundColor=default;verticalAlign=top;aspect=fixed;imageAspect=0;image=https://cdn.worldvectorlogo.com/logos/docker.svg;" vertex="1" parent="vPIFIaNN0rYwnKn2M_h0-26">
          <mxGeometry x="100.11000000000001" width="35.7" height="30" as="geometry" />
        </mxCell>
        <mxCell id="vPIFIaNN0rYwnKn2M_h0-23" value="&lt;b&gt;Python-Downloader&lt;/b&gt;" style="text;html=1;strokeColor=none;fillColor=none;align=center;verticalAlign=middle;whiteSpace=wrap;rounded=0;" vertex="1" parent="vPIFIaNN0rYwnKn2M_h0-26">
          <mxGeometry x="50" y="30" width="60" height="30" as="geometry" />
        </mxCell>
        <mxCell id="vPIFIaNN0rYwnKn2M_h0-24" value="" style="shape=image;verticalLabelPosition=bottom;labelBackgroundColor=default;verticalAlign=top;aspect=fixed;imageAspect=0;image=https://upload.wikimedia.org/wikipedia/commons/thumb/c/c3/Python-logo-notext.svg/1869px-Python-logo-notext.svg.png;" vertex="1" parent="vPIFIaNN0rYwnKn2M_h0-26">
          <mxGeometry x="10" y="30" width="27.35" height="30" as="geometry" />
        </mxCell>
        <mxCell id="vPIFIaNN0rYwnKn2M_h0-39" value="" style="shape=flexArrow;endArrow=classic;html=1;rounded=0;" edge="1" parent="1">
          <mxGeometry width="50" height="50" relative="1" as="geometry">
            <mxPoint x="215.81" y="167.25" as="sourcePoint" />
            <mxPoint x="285.81" y="167.25" as="targetPoint" />
          </mxGeometry>
        </mxCell>
        <mxCell id="vPIFIaNN0rYwnKn2M_h0-41" value="" style="group" vertex="1" connectable="0" parent="1">
          <mxGeometry x="300" y="250" width="135.81" height="70" as="geometry" />
        </mxCell>
        <mxCell id="vPIFIaNN0rYwnKn2M_h0-13" value="" style="rounded=0;whiteSpace=wrap;html=1;" vertex="1" parent="vPIFIaNN0rYwnKn2M_h0-41">
          <mxGeometry y="10" width="120" height="60" as="geometry" />
        </mxCell>
        <mxCell id="vPIFIaNN0rYwnKn2M_h0-40" value="" style="shape=image;verticalLabelPosition=bottom;labelBackgroundColor=default;verticalAlign=top;aspect=fixed;imageAspect=0;image=data:image/png,iVBORw0KGgoAAAANSUhEUgAAASwAAACCCAMAAADLwgVtAAAAulBMVEX///8AAAABAABgYGAMDAzo6OiqqqpWVlYXFxd+fn7x8fHFxcVcXFwcHBzvWihsbGw+Pj6dnZ3v7+/4+PgzMzNJSUkkJCTd3d3Nzc0RERFQUFDm5uZ2dnYtLS3/Yiy5ubmNjY3U1NSioqKzs7OVlZWKiopEREQ3Nzf96OH5xrb2n4L83tT4uqb5wa71k3L70sT0bkH+8/G8npOFMRbzh2WQNhifQSHyfFX1ZjX3s5vyc0j3poz0elDwZTbLWnm7AAAKf0lEQVR4nO2deZujNhKHuUxjsNsHNtjtu31lMkkms5vdmVzf/2utD5CqpJJB4GchT+v314wQIF6kUlVJuC2rWOnIPa+GA79Tou4H1+zNdu7y3LTpxrRcXQfIOzTdnFbLdbDcphvUYg0cUS9NN6m12kusTN9SKU5kVrb9r6ab1U75DFEwCXJW/379oel2tVJvbBIcW+Fofme1Xv/WdLvaqLifwfJv/428C6v/rF9f158ablgblWasztn/N47z3wur1/WvXxttVys1y2At8wL/xupC68cmm9VO7TJYA1by5fVO6/Vzg81qpzreHVYSs6KM1vpbg81qqVZS17I+ZQPxp+Za1VKxYKfLy36+d63vxsYLyi284xx54U93Wr8016yW6o3R2vLC3++0vjTWqpYq9RgtkMm60Vr/0VyzWiqQdnjnpX/eaP3eXLNaqhGn5fPSH6+0vpuAWtSB09rz0istE1DL2jJY3oaX/mICalJHTivipb+tTUBNiS/weDNeeqX1Z3ONaq34ssV8xwrjb2sTUFPitAJO6+u3tQmoKfHlwz5flf7613r9c4ONaq1eGK1kwQq//rH+29h4QjxMXPENIj/8apKmlOITozUZs9ILLWPjCcVDRmsYstLP3/9qsE3tVXhmtE480fzZJE1JjVeM1pSXfvnbBNSUOpxWj5d+MiEiqZTvFDkW1/7oSvuMVlRc+6NrFzB3Ky6u/dE1m+e0tuKhDtADkiGoFqIjqvPHivpcsepU5b0IpdHo2F0uj4f9rrBukXb3GDrKFzEC4Yrjvsf1przMOAHVevBICI748MCQFfcV+6Vn4JrQPiwCXt6lT70rHfUSz2YKTt06Zibs5luVR4quNQY3s+136QqZXFgL7VAN5/wAgrXi5YrBH4FrIligTWpYsT9Fbc9u1a26k310seyj7N/T3GrhKuM5vFUwlq4hPZYIK1DAmoAz6C2tszqwDuBlIFXb+D+7hTo5LLaaiHsqhqV4Kgs3TB+WPbII1YC1QVcXcXV1p7F4eWfDmtnLYC1RNQGWTQ76I65TAZa3s2SpYME2kbDiwQNUV630bFeU++0MVpQVnFE9EdZKutK1U9aGRZotJSxwSQpWei5gZduOzlclfLmCD4DMkffQp08iLJtw8t+EKlVg2T1LUkVYUWCX0EA+kVbKEzMAVp5lRl1UguVJ5tEX21EJli2/62qwImIOpFTyOwl/7lCw8oVX9EgSLFt0tsL+c2A5M0tQJVg7qcEqlepb6JMwACvfL4JesQwLP7Jlyca0Giw7ET3sKrDGidSc/nn6Np0QY3NbiCp8cRSwcguPrBIBq48eauY8C5Ytfm5VBZZoP4fb2X3qCKOu6HnJfVlQenaKYKH7E7Bs5FwQM085WMSJ29qwDviC5w066gu4CtIGs76jhLXJSlCTKVjwjRzkwyVhDYkLY/dHH9YCG3fJoMVdfMOH+btoLrICsEZSiQKWzV2xBXW4Miy7j8IpfVgoRPX2liwfWY25Iny7asM3SAaJhCZz6R3UdUlYfJp/oY5Wh4WnWm1YO0gCPwfTHtFSx+F7zmqVuhKs3PlCjhQNa54tYG+og3VgoYGhDQtNzGS4aQmGo6+yWhuGypmO2WI0u2YeSSfoJBpWxiOW5+m6sCAVXVgonaT+khmNBp+uE/F+dXVeJVj59jYcdyhg2bc+3qWP1YIV8GhLBStWwBqB+t7CUgnNAnQ+k2eO73kFEZbwHSIBy4MT7/XTH2gi+uDZtWEhM3IqhgViBggL+lg4d4IFR+ucGocL7jPczYIIK+9YwgQBYDkbOOq6uG/4yxqwXNTL2PNrwoI5WTmCBUrhyyEc05CvpG4tChbL/QnxJRyGKUyIOh0YQJ/grK0Nq4uTPPk0pgkLtu5kPdIJ1CRyNfInKBhWPMmPC6ShMY2sHrjLGfSzy4usA2uAzI0dLCrBgtPc1nqkd1BTTj7w2JldHMNiMMVJBDYsQuigtlZNWNidHFaCtVRUlwXH4Vk8yH+dgNs9CCtkrKSxjmHJuSv2cDVhxShsW1aBBVyCB3PhTWBQBCJI5jQAtwDAmnGDJkdTGBbpst8S6DVhCbnpfQVYwBKJq5+i4IQiHGKJhiGYJ3NY/njJUDlD6bIirA7hd92m17qwkCGx56k+LHDBpGD5BjoZ+AiD0YfZ9RzWEOQhArn3irCIgTixngILBytnfVgg51PUs5Sw8jQV+pICzo8OXUEBS0qvZfNnfVgxynAN6vQsr+D35qDvgJ6W7b7CkaUMa05NITIsMSuTNbc+LCtFV/aVy/cKWPAtFuRAwWyCDDwbhIJD8SKySsgbyLCwcWHZxifAwkPcW6R6sKD3oUo53NUBkwl0Hdjn44LNG4vp5Te65xKwrCl8przwGbCQq2QPYXofwQIzP4AF18Uf/3oazCzBPsSYoDEWboX08ly1QkvBgmE7c9yeAgunIs7gPqj5NKw9OPVRChS/E/Dg7JNV6EDFB+H3xryB0omjYIHghPfX58BaqFaTS8BC8fGj5Xn4TODCYb7/Ea5jvK9EVA9CdBIWn0146vY5sBS511Kw0OIaTmFiwUAUpGiYdef38icaqFSwcncbPOWTYKkSimVgoVO3pR4JJP8WUt5lP3QEPZ43FLCyCB8utz4LFvKB9GBBv4zexHQTmkV4k/LPL+fZTLc5iajExGhZWPdHhWtNT4PVIc1WGVh43XalsPFwHgALFiyA3t7+GxFOe2VY14GIsvVPgyXsudSBhT3AM0kLb7Lhi0l5x7pNWTPJC60Fy9oKG0y1YQFvTdjPImwkLA9LWG1aEW72HrHij8As1rtl7VwbM+oNa8KyztjaPRGWFH6WhSV0Lds7CtkHcfmeOxh5enRipQMPo5pGbOtaZVhCO54Jayxt+SoJS1pfS7aw+4sbQ3hGivlY266A6nT1jnp1YQl6JiwrkvYxlYQlbm+9jLSBn17ea5jul+KWI5AWZp8BUKhaDutiEavBwisfOZR+kgTyNjL4CYQYKd81zKf7dsOS0tfo3qCLSHnwpV1W4NQZherMm9tyWKGwjQLdG8Q18jYY1y4neFP5R9+dCWxsy2FZM2x9ysMiNrkWsYoDCRX+SqntsIQ9hRqwZINHCO352wioVmIM2HpYeDzpwLI29FYorj7e6Ib/TEVykNaGSsKCM8//GRZad9WCZY0fD0UXB0JoFBKo/gmwrJ0qU1oI6/a3clSais+xgajIRbSysMCKy0NYYK6fwvIQODjIasItR4prvivuDV6geh9W5FL78Oau/BR8YfWoWG8sC2vpMj3MEo54PZTSjQf8AApst7xc+YHskb53l5/6qPkd303Qltyk904ty2SZ40CFqjysf7jSzWHp9no9d7nd7+hF/c4dVffBGscHgVVCmxuqh2vYBlaupTNfFmxRMrByTdQLgbkMrFwlPsY3sDRkYGnIwNKQgaUhA0tDBpaGDCwNGVgaMrA0ZGBpyMDSkIGlIQNLQwaWhgwsDRlYGjKwNGRgacjA0pCBpSEDS0MGloZeDKzyGhhY5TVODKzymnkGVnmNDCwNuQZWecUrA6u8dp6BVV7vBpaGBgZWecUrnT/m8NG1+/B/Su1/BnWp9bgE0QgAAAAASUVORK5CYII=;" vertex="1" parent="vPIFIaNN0rYwnKn2M_h0-41">
          <mxGeometry x="13.840000000000003" y="20" width="92.31" height="40" as="geometry" />
        </mxCell>
        <mxCell id="vPIFIaNN0rYwnKn2M_h0-25" value="" style="shape=image;verticalLabelPosition=bottom;labelBackgroundColor=default;verticalAlign=top;aspect=fixed;imageAspect=0;image=https://cdn.worldvectorlogo.com/logos/docker.svg;" vertex="1" parent="vPIFIaNN0rYwnKn2M_h0-41">
          <mxGeometry x="100.11000000000001" width="35.7" height="30" as="geometry" />
        </mxCell>
        <mxCell id="vPIFIaNN0rYwnKn2M_h0-42" value="" style="shape=flexArrow;endArrow=classic;html=1;rounded=0;" edge="1" parent="1">
          <mxGeometry width="50" height="50" relative="1" as="geometry">
            <mxPoint x="360" y="204" as="sourcePoint" />
            <mxPoint x="360" y="254" as="targetPoint" />
          </mxGeometry>
        </mxCell>
        <mxCell id="vPIFIaNN0rYwnKn2M_h0-43" value="" style="group" vertex="1" connectable="0" parent="1">
          <mxGeometry x="480" y="245" width="135.81" height="75" as="geometry" />
        </mxCell>
        <mxCell id="vPIFIaNN0rYwnKn2M_h0-44" value="" style="rounded=0;whiteSpace=wrap;html=1;" vertex="1" parent="vPIFIaNN0rYwnKn2M_h0-43">
          <mxGeometry y="15" width="120" height="60" as="geometry" />
        </mxCell>
        <mxCell id="vPIFIaNN0rYwnKn2M_h0-45" value="" style="shape=image;verticalLabelPosition=bottom;labelBackgroundColor=default;verticalAlign=top;aspect=fixed;imageAspect=0;image=https://cdn.worldvectorlogo.com/logos/docker.svg;" vertex="1" parent="vPIFIaNN0rYwnKn2M_h0-43">
          <mxGeometry x="100.11000000000001" width="35.7" height="30" as="geometry" />
        </mxCell>
        <mxCell id="vPIFIaNN0rYwnKn2M_h0-46" value="&lt;b&gt;Python-Loader&lt;/b&gt;" style="text;html=1;strokeColor=none;fillColor=none;align=center;verticalAlign=middle;whiteSpace=wrap;rounded=0;" vertex="1" parent="vPIFIaNN0rYwnKn2M_h0-43">
          <mxGeometry x="50" y="30" width="60" height="30" as="geometry" />
        </mxCell>
        <mxCell id="vPIFIaNN0rYwnKn2M_h0-47" value="" style="shape=image;verticalLabelPosition=bottom;labelBackgroundColor=default;verticalAlign=top;aspect=fixed;imageAspect=0;image=https://upload.wikimedia.org/wikipedia/commons/thumb/c/c3/Python-logo-notext.svg/1869px-Python-logo-notext.svg.png;" vertex="1" parent="vPIFIaNN0rYwnKn2M_h0-43">
          <mxGeometry x="10" y="30" width="27.35" height="30" as="geometry" />
        </mxCell>
        <mxCell id="vPIFIaNN0rYwnKn2M_h0-48" value="" style="shape=flexArrow;endArrow=classic;html=1;rounded=0;" edge="1" parent="1">
          <mxGeometry width="50" height="50" relative="1" as="geometry">
            <mxPoint x="430" y="290" as="sourcePoint" />
            <mxPoint x="470" y="290" as="targetPoint" />
          </mxGeometry>
        </mxCell>
        <mxCell id="vPIFIaNN0rYwnKn2M_h0-50" value="" style="group" vertex="1" connectable="0" parent="1">
          <mxGeometry x="670" y="250" width="135.81" height="70" as="geometry" />
        </mxCell>
        <mxCell id="vPIFIaNN0rYwnKn2M_h0-35" value="" style="rounded=0;whiteSpace=wrap;html=1;" vertex="1" parent="vPIFIaNN0rYwnKn2M_h0-50">
          <mxGeometry y="10" width="120" height="60" as="geometry" />
        </mxCell>
        <mxCell id="vPIFIaNN0rYwnKn2M_h0-36" value="" style="shape=image;verticalLabelPosition=bottom;labelBackgroundColor=default;verticalAlign=top;aspect=fixed;imageAspect=0;image=https://cdn.worldvectorlogo.com/logos/docker.svg;" vertex="1" parent="vPIFIaNN0rYwnKn2M_h0-50">
          <mxGeometry x="100.11000000000001" width="35.7" height="30" as="geometry" />
        </mxCell>
        <mxCell id="vPIFIaNN0rYwnKn2M_h0-49" value="" style="shape=image;verticalLabelPosition=bottom;labelBackgroundColor=default;verticalAlign=top;aspect=fixed;imageAspect=0;image=https://dwglogo.com/wp-content/uploads/2017/09/Elasticsearch_logo.png;" vertex="1" parent="vPIFIaNN0rYwnKn2M_h0-50">
          <mxGeometry x="12.969999999999999" y="13.5" width="94.06" height="53" as="geometry" />
        </mxCell>
        <mxCell id="vPIFIaNN0rYwnKn2M_h0-61" value="" style="group" vertex="1" connectable="0" parent="1">
          <mxGeometry x="480" y="380" width="135.81" height="70" as="geometry" />
        </mxCell>
        <mxCell id="vPIFIaNN0rYwnKn2M_h0-37" value="" style="rounded=0;whiteSpace=wrap;html=1;" vertex="1" parent="vPIFIaNN0rYwnKn2M_h0-61">
          <mxGeometry y="10" width="120" height="60" as="geometry" />
        </mxCell>
        <mxCell id="vPIFIaNN0rYwnKn2M_h0-38" value="" style="shape=image;verticalLabelPosition=bottom;labelBackgroundColor=default;verticalAlign=top;aspect=fixed;imageAspect=0;image=https://cdn.worldvectorlogo.com/logos/docker.svg;" vertex="1" parent="vPIFIaNN0rYwnKn2M_h0-61">
          <mxGeometry x="100.11000000000001" width="35.7" height="30" as="geometry" />
        </mxCell>
        <mxCell id="vPIFIaNN0rYwnKn2M_h0-52" value="" style="shape=image;verticalLabelPosition=bottom;labelBackgroundColor=default;verticalAlign=top;aspect=fixed;imageAspect=0;image=https://upload.wikimedia.org/wikipedia/commons/8/89/Flask-horizontal.png;" vertex="1" parent="vPIFIaNN0rYwnKn2M_h0-61">
          <mxGeometry x="7.3799999999999955" y="23" width="105.24" height="34" as="geometry" />
        </mxCell>
        <mxCell id="vPIFIaNN0rYwnKn2M_h0-62" value="" style="shape=flexArrow;endArrow=classic;html=1;rounded=0;" edge="1" parent="1">
          <mxGeometry width="50" height="50" relative="1" as="geometry">
            <mxPoint x="620" y="284.83" as="sourcePoint" />
            <mxPoint x="660" y="284.83" as="targetPoint" />
          </mxGeometry>
        </mxCell>
        <mxCell id="vPIFIaNN0rYwnKn2M_h0-63" value="" style="shape=flexArrow;endArrow=classic;startArrow=classic;html=1;rounded=0;" edge="1" parent="1">
          <mxGeometry width="100" height="100" relative="1" as="geometry">
            <mxPoint x="610" y="380" as="sourcePoint" />
            <mxPoint x="670" y="330" as="targetPoint" />
          </mxGeometry>
        </mxCell>
        <mxCell id="vPIFIaNN0rYwnKn2M_h0-65" value="" style="group" vertex="1" connectable="0" parent="1">
          <mxGeometry x="670" y="380" width="135.81" height="70" as="geometry" />
        </mxCell>
        <mxCell id="vPIFIaNN0rYwnKn2M_h0-53" value="" style="rounded=0;whiteSpace=wrap;html=1;" vertex="1" parent="vPIFIaNN0rYwnKn2M_h0-65">
          <mxGeometry y="10" width="120" height="60" as="geometry" />
        </mxCell>
        <mxCell id="vPIFIaNN0rYwnKn2M_h0-64" value="" style="shape=image;verticalLabelPosition=bottom;labelBackgroundColor=default;verticalAlign=top;aspect=fixed;imageAspect=0;image=data:image/png,iVBORw0KGgoAAAANSUhEUgAAARUAAACXCAIAAAC0g1jSAAAAA3NCSVQICAjb4U/gAAAgAElEQVR4Xu2dB4AcxZWwq7snbtSuck5IQkKBoEA0IieDMdjYxvF8ts/5dw5nbONwPvuwOSdsMGdjjAPYBp8BmxwFiCAJkFDOWdogbZid2OH/qmt3dnZmdmZ2d1a7HN2I2ZnuqlevXr1XL9Sras1xHOFdHgU8CvSLAnq/anmVPAp4FJAU8OTH4wOPAv2ngCc//aedV9OjgCc/Hg94FOg/BTz56T/tvJoeBTz58XjAo0D/KeDJT/9p59X0KODJj8cDHgX6TwFPfvpPO6+mRwFPfjwe8CjQfwp48tN/2nk1PQp48uPxgEeB/lPAk5/+086r6VHAkx+PBzwK9J8Cnvz0n3ZeTY8Cnvx4POBRoP8U8OSn/7TzanoU8OTH4wGPAv2ngCc//aedV9OjgCc/Hg94FOg/BTz56T/tvJoeBTz58XjAo0D/KeDJT/9p59X0KODJj8cDHgX6TwFPfvpPO6+mRwHfsCIBh6FmnYeq66VKuKqraRo94jtf1Pdh1UEPmf9jFBhG8gPTm6b5/PPP33777U1NTVdeeeU111wTDodLEQPqplKphx566A9/+AMi9453vOP888+vqKgope7/sRH1unNMKaCm7eHwaVnWbbfdVlVVpfofDAYRg2Qyadt2YfQowPWjH/0oXTcQCHzve98DYOGK3lOPAgOkgEb9YyqvvTQGGi0tLWecccbGjRt97hWPx9Eev/71r9///vcXNsao+8ILL5x++ul8MQyDuolEorq6+rXXXps8ebKngnohuXe7DBQo1bsoQ1PFQNx1112bNm2i1Nvf/vbf/OY3iAHygD0Wi8UKV0VafvKTn6iJ4OMf//hHP/pRyre3t3/yk58sXNF76lFgoBQYoP4qV3U8n9mzZ9MZFMhjjz2GPXbRRRfxE5Ns9+7dBUw4Hu3Zs+e4446j8MSJE7H3+In9xk8+9+7dW6BuuZD34LxhKTBc9M+uXbu2bt0K048YMWLp0qV8IQBAJCASiRAV4Gd6hJS3w8+0YBw4cACZoczVV1+N+CFFF154IT8psHbtWr54l0eBQaLAsIi/IQxbtmxRPTzzzDMrKyv5vnDhQkw49Anygwt05MiRDRs2PPjgg9u3b6f81KlTUVCLFi2qr69fs2YNxZAcJXg4PG95y1vuv/9+5AexHCTCeWA9CkCBYSE/4HHw4EE1HosXL+YLMoDrr+QH8fjSl770j3/8Y8eOHYhEeth+/OMfT5s2DVVDsJubRKvHjx+vogXIHncozCOEzQsheLw+SBQYLvKDnaZ6iGJR7D5y5Ej1ZefOnYQH1FNcGuXboHC4UC+/+tWv1CO/319bW6u+jxs3DtsP+eno6BgkwnlgPQpAgeEiP2iJtISoL1mrn9hp11577VlnnYVeogA+z8qVK++88879+/er8igrlowQOUAhS0p+vDH2KDCoFBgu8gP3q36yCkQsjqVPVIcSKkTiTW960z333ENoge9KQij81re+9atf/ep73/teHCRUDVWIdBPLpgDBa4BQJg12UInoAX/DUmC4yA/qRUkLq0Aoln379uERRaNRBuZf/uVffvjDHyrhUeOk7Do+qfWXv/zlG9/4xk9/+lMCDO95z3twgSZMmFBTU0NJCqQtujfsAHsdH1wKwLVDeynVQdqbkoqs3hJOaG1tpUxvSKJ2jh49SvJBLpmIyLH8St0C1XsD6933KFAKBYaF/sHuIuEAdJUMhEIhoghkjra1tf3bv/2bCmfnioe6g5+DkvnsZz/b0NDAYiv2G+utSnEhWn/84x8J0KGm8gpnbzCH8H6aCFk4ZOJfSpkh7MIbq+lShGzwyijlc9VVV6X3KZAzum3bNgSACxcIN6ao9qAAxSisaiE/ZPEozwe2mzFjRnNz8+sllxQ8//73vzN9pK9JkyY9+uijmUR44oknpkyZki5AEP+GG24oSqXBG8Q3MuTudf1jTwWGnBg03ouasUaPHo3zI42tnlcpiGVVQZxYP4XzgIwIsfyKXhpUDstEIH7UjjXasSY7IQ3P7quUjiA/f/rTnxTaYK4uJCoTebqWfqS+fP3rXx/U3pWC+RuzzBDbbwQJbr75ZtgFm43cAvIJFOv01QaAjTKroM0uvfTSZ5555pRTTkH5YMVhB5566ql9BVtKecU3mqM1vqxt+K1z4Ckn0iAcXeKj207lOG3KxeKED2i1c6QLp2l6T0x7bYHC6llW19TN9FN+UiDzZ68QvQeDQIGhzH9j1H/2s5/ht8Dun//850888US+5GWXvnZczcqsFAGW72yt++Y3v1l2JlOSEz0k1t+q//VU8dfTnC03aZH1utOgi0Ma//gSWSfW36D9aaHzv+doW/6oxZocNxLS1w555YcpBYZSfmBrlT1AuPmd73ynYvoy0gmArA4pz+rxxx9XOablgo+9JByx/wlxzzniuU86R1cJn+nqQEfwR/1zf6Id5KPGp8XTHxT3XizatvCQ5FdPhso1FEMJZ8jkh0l41apVLHTSe3YfzJkzJ00GNa/nztLqfmaxXMpllkF+yMXGkKMYfgV5dLkwcyGUckfCsbVX/lv843IR2yI0KTk9DMhcIBoFUlrrGoEuWn+rLF0uZHLb8u4cMwoMpf+jMqnpKjnXhMuU5SbndffKNevZkbp69Wq2OSAMRJ/wZ1RoW1WEHflCdZW5kw7oXXHFFffddx+PypWLjQEmTPHUJ8TW3wktkS02DgoI3N0u8F2KTcbFTyMpVn7OiRwSy77eec5JZgHv++uLAkOmfyBTemMpWkJRTU3JOEWs5Jx22mnp3DZ2YrPCgz9DIs8HP/jBD3/4w2xeGDNmDIE1khUQJ6qzzMqRI1TE5+FnenZXUTjuqEWhAQ6PlFIh1v1CbLldiFzh0Z3QeFG32Bl5tvxXt1iEJrCnPNtUczq0Nd8U627GjJP6coAoedWHkAJDqX9UJjWdb2xsTJMAp+gHP/gBosWRBhx+QHT797///Ve+8hUidayT4iapfUGbN28mjMujf/7znx/5yEeuv/76V155Re35uemmm973vvepUB5gDx8+rIAT4hs4oWH25pfFS9cLLdlDseAMBceKJd/QJpzrhEc5RlA2ZSVEvEnb97h48Xon1Sj0DF3kE9pL33SmnKfXHIfaHDheHoShocBQyg8Lf8pIe/bZZ1mxIWkaGmCAsSjEF6SLiBwiQegZ6+4Tn/jEddddxxqRqsIn5tzPf/5zUuNuvPFGzLlzzz2XOATpp0BIb1tgdkfAgMYXlbg9EDKjKpJHxYPvElZLD7PM1pzJV4jlN4uKMW70QHQFqatFaKQzYrY47p3iiQ+LPfc4mSJkNWoPvN25eoUIyGQ973pdUmAo7bclS5YoB4aNpegTZcmwB+H73//+smXL/v3f//2SSy7hGCp00be//W2EBIMNsVEZCQgJ+gSj7o477oDwhKcBRUW2oPJdbUQFIBagkh/KsBakPKV+DxR7xrf/TcR2oDC6VQaaZ+5HtfNvExVjhVzdkVd3C/KXroXqxLn/I2Z/SFjSO+q+WteJTX+QU0a/UfIqDi0Fhkx+4Cs4/l//9V/pP0oDMVA7DrjPzeeee441dY7jIa8UWfrUpz5FMiglP/OZz8xyLzwf3B5uXnDBBSr5DQgYcrhDX/va11Rh5Ie0OrUzj2IzZ84cCK2V57Ptj8Ixu2WACMGoM8TS7ziBETLg0Rt8HgVHiLN+IsacIYMK6WKEtnfeI6yYF4vrjXLD/f6QyY8iDIlqBA9gTSwxeJ2bcsJmynYXUrHr+GQNR93hKRECPskrfdvb3qbKUJf0OWw/QnM8UjdV8I3DQ9jXwE32PvBF6beBDEj0oH7oeVRPt5xYmjj5CyJYX0h4VIt0wRcSiz5L3LsbBUA1rhSxxl4FbyDYqrr0miszuyf9fSDAFdjczzTM3EfqTtFGsyqWBduijfa7wFD6PyCN34IVh5VFcIwAQFY3sOW4Q2Atff/ss88++eSTiUQTlYYj1X00DLpIFc6EwHkJaDbuUGX69Onp8v0m1pY/Ok40Q3o0MWKBmP4W4JUmAJo2/XInOEGY+2WMW6GRioq9D2nzPjIoUTh4kbmGDfBkoHJCC7xIVjtbQghjMm3hVUJ2MgPTBMHnJICZJhTVIb4Kb6oymAzQGTjstsI6IOVKxX4IcmJsz507lwJUpyK1oD9bG9etW0ddEl7f/OY3YwJQIL20kDUQ1MKnZesX86YKq4IhC4PYDgwfmBNbSu+qpC5wMneF9XtYB1Sxt3niGNxnGDifje1udIDhhHBZ0ySbtKEaW+LgAB6p6+677+aYX/WdQYKgRA6AwF7urOo8UjlveEqs1WY+7UfvqP6X5fYtmnOL6Pz3C81+5Sc9pvaiYAGy+gbnl5qdBsKXv18he6Pq0iOVP5oeVNgxN380c8gpQGQlq3f8BBRic95557ETPotFCMOwdRfHkk/MY3VBq8997nOZcAjkcCRYugBfoDxgOcuFWS9LDGgFEcKPBQI5WUR9xo4dm9kuo8DJmDwCQhahFLbIG1v02WyShS0SS9yVOOqf//xnkExjS9eyel2U/mUvMMT510SoFbGIFkgm6rlPDkKz+RT+QO2w2MpkyR3cJC6+qLmKM+YpAE3zVscsVPDZFpE7bH2ipm3ZvxppZcoPYtD0qsP90uFYln1ko/MLkSE/mnPbdJi9nPIDKWD93/3ud1mMmPWT05KJqWTeRKtnUgkgmU4jdP7ABz7w17/+Na2gcuFjS2MOXH755b2VQcbQeFkUY0CZ4NSu4VyY6g7T6Lvf/e7Mp3V1daVTfpBKDrH9xv5QKMLUdc455/All+hEEdjPQ/Yag42QEPJGI8EfUBx9hc/DpHX88cf/8pe/zK0ONFQ/sQR4ghQExrXwCPU2cuq+GROpVuHLsLP0kPDXqIB14ardTzE5KyfIFdjuyxHx/Tgo+HylAimlHP0l4l+4JGZS4QJZT2FBth5hkvGlt4pEO/FXab23Aph89957L2otPdZAw75A82Bq9laL+ywAKm4pUObYPxpK+YGt2WJAn7GJMZ1zO4+FgMBghBCS/sUvfgHplYKiJNTnQpYIxKFk+JJbnQJE6oCgdBemBVZHbrFS7+TyTO6dEmDlqaQST0uoW0oR2JEJnoilyi1MV4EaWFB4ONCQAmqRrRSAmWWYy9I/MauUIZBZAKPgb3/7m7rDzIUDk+lfqfscWYH8pGvBBkRQ0wdopu+DqlryBlXA9hXVY1N+yOSHYT506JAaRbxAtTCa22c1S5FeQGwaTxQjGHJTDNHCUJ43bx7bS1XMLbeuusNaEPLDd7yp3sqUct9XIfxVwiGW0SUBdkpLtqoctlIAdJaJHdBYb9XTYqSJ4ESy4voAoXBRCIvSTp9HmS7MqsC73vUuZhPM4PXr1996662cM14YVG9PebcFw8FkREo7Q5M3MYoTKVBEmFj4pfhvaZXFF2IPjLuK9/AThYZDldXW8uXLmQJIIkFECRchcr/97W/V0PeG1ZDcHzL5obcEx5R4IAkq+aA3EiAhBBjSaXKZxRSE3ipyH45RTwd6lqImahdoLVJfdl5kr+17XKtfiCiUFn9z6+1+AOHpUb5uIULYlXPaDb6f3+BOtvFmmliQ6D//8z+/8IUvqImGRyeccAKuPDy6YsWKvjYDNBa1WXjgC6CYm2655ZYsIMT3EE7VHGkfWBDp8zEpSa00eihDYhJZ1UmZJ++Em2pwebEAdjhwvvWtb2X2q6+YD0b5shrdfURQaWcoQiAIOhauDSnzXoVr8ZTTeVSZwiJaFA4Fpp0v5KafrstwtPW/cexEqds/6akVF6/cRCJc9wVAwHaF4kvBolAZmsAhzGRWSs+fPx+/P62l02QkwIB+KAQu3zOYWwmPYm6O+Vdf0mVpiGgQxptqkShcgcxDpB31kikVGPNUB1oarEIYpUo+Vz6MhvLekMkPROGUXUU4YppZQ15Gkqj1BwByIPCAwDpi/ocQlR4w2taL7ff0zMnpvQ2q7n5IxHb2KKH5xIwr+qC+egff+YQFmUxvATpzaKtKfcqqy1JPXwMqSMWnP/1p4KSZG3bP0gmjRo1CXaTbQooK4IxRoNbo0mWoTqAoSybVTximAKgheVSob4ONEGE3HBhawYBO57+Vt1EkU+UlMPCE6QYEXBPhcY6bgNN94ca8coOIHiyegCOVT4ez9r+F1lPRjj5VhEb3FMoBYSmTMzJjA7RbRrZDDlmvy2TuLOEBdyJpfGYJQN4+URdRz7SrqcU0p9Kv8lYZbjeHUn6gBas3fBIpeuqpp6Bm7mD0m14KGr6piv/g7A6QjRhaUteOu4Yk0W52JwGn5VXx6LUkxZEG2gv6VHOk0DzyQe3wMz3Sf4TmTL1C+CpL4rYSSQGembzL96xAXIlw8hZjCwlXYdkgYFO4QCbkLGwVM+RtenjeHEr5gXasKzPfwHds2lFRsjKSiZmYw30AjudDmGjgkEF45lUiODUrB1Q79LS471LR9DItZMsQrdvCbt+lPfp+sftuTuTpNtUQq/BMMfd9ZXN+VAcxydIbq7gDAiTjIkJ5hbuvES00Q1HlQC5P3rZy6Q89cY0y0yOoiP3JO3Dz+sN9xTa3xbLfGUr5oTMEx1iQ5gsLC/i45e0ebz0hfRuYhIPIYCh9UuwNDSBUThQX/UGz5U6l7ot42qHHxN/PF499WIvsZQ+5PB5E/Uu1a6u+p/15idjxB2Fkpo5i4VSJS+8WoVHlfD0RGOI/ZMoPWLK0/8gjj8CaabZW3x944IEBxvTzEqpPdMZ9yophkHFHbD0XW2LlarUwb6NDdXMo49cQmsksHZXOuwbab7owAPjHimNI/Sg6a5bYEAbb2GXOKV8XL3/bcY8N6bw4/81uEdt+42z9rVM9S1SxpKOL+BHR8prjJDHTepptbE3VnaX/LurmyYWsEpsupRj9ZUEMjsx0yrFgWa5R+9sVsxKTJA2H9yvnneZLaahcZVj64/QYJDwNkC5gjKCUwJmYNUwC/uQ9fOxjH8u70FQuTPoHZyjlB0pxuCHZHKCOHlcHKfavG7m1oPuHPvQhYHLeCE3AMSzR5hbr8x1XZE76vGjfJ7b8yjEyVn54ghSxRS66Sf5Tl7zZsw3MNrnr4Tqx6DPlXDbtbM59JwVWMQs+mc0SJibo/N3vfpcgCtEFTGUWWEln7nP3y12BeY0MkqwFKxAD/9tvv530EWZVznNm3bxwdk+58SoVXjknv1Lb7CqH/JB/rV4bzNI4qYp9Uv2FmwMU+gewFIP0LGAXLl/6UyD7wuLcm8WJX+P94AS0+xA9o7BRLZZ+Tyz7pjBC5QwbpPEHvS9/+csqsJnZKWZx0szIgSKZkCWX3LSa0ilQxpJgy1EwZJ1mDT28wa4WokogDIcMT+GBDkMpP5CM9W8SNMiSwkVRtlZ5x4ZDfJSBpLRcuYDLwXbEkuvEpfdplXPZEleSFNm6M2KxuOIJcdLnpFYq42SR2S/AEkIgXTD9AszMpxA5TWd8D65y0WQgcHiVLXu0cgmSiS3wB7qCNxAUe6k7lPIDSpx8wCf+LqsK5fUEVH+nT5+uRuXVV1/thQL9vM2pBhyyM/Fs+23PiBOvF7UnCb1SRqmlMlJGm/vJT6IGRq1Tt8RZeoN46xNi1EnCCIBUlllXCI2iM0tuAfXGPpgyb9YFVhP57DgVrOekGwalLDi5YHOxlD3J6EsukNwquXfwgck6vfjii8msy33KHXwkkuhYVy2Abd6Kg31zKP0f+qZ2L6J/8CPL3lXGMj1j4T2j6PIyU7/bdflGC9Y5S78uFn5UtO0UDS+IQ6ucpnXClC/OE4FaUT/XmXCGPuZkUT3DCdVJmcnkttymeYrpxX64dDFcfJLTM2vhFWQWAAjRxUxQiok5lRLjh42ceBfYbCqjlKxNCuMZkvyG8mGPQ+b2XmIPmQ0hZnjtmQUI7mWyOIVBhnSb9NwHtmw1zQSCP8apFZnmIkFX9XYZhbMqTNSbkAZnxPIJ2qynq6dMAbxWkHd1ApYofKaaYtpFwjPbyqXnYN/JnnIGu71M+HSeYwx4sSlDwkInWwvLTgv8TuY21g2I58AHmcNW3p6qqVoOpxsvSLtE/MDnUf0qpXdpOJnoZVWnjCqWLtMbfFVSPVUcDAXSiXASz5ydPJlWQC4yuZjkAqFMZk+LAkn3Il2S6gQ5EEWw5eK+ApiLbVZb5R3TUqANsf5Rh4NCLBJtSkG3T2UgN/EJRXSSD8oVws6LQxZjZRpnmeeN5K2beTMLTt7ypTNNZsn0+RCZzJ35PbetosgULQDMUsqopjNLppewMrtQGNtc/I/BnaGUHzibLezqfDYURXqaKWO3WZYlrAdkIjxlBPt6BDUMma8AGV8v2A6x/UakX7lAhIwwx8sbQkBsWHFTK4lkbQH/9TIqBRjLezSsKDCU8jOsCOEh41GgHxQY4vh1PzD2qngUGD4U8ORn+IyFh8nrjwKe/Lz+xszDePhQwJOf4TMWHiavPwp48vP6GzMP4+FDAU9+hs9YeJi8/ijgyc/rb8w8jIcPBTz5GT5j4WHy+qPAUObvvP6o5WE8pBRIJ7v2ZfPH4GLs6Z/Bpa8HvYwUSJlWMsXp533Y8FvG1vOC8uQnL1m8m8ORAqalpcr6roqBd9KTn4HT0INw7CgwjFSP22lPfo7d2HstDZACOZv9BgivDNWHRfzApYva56bmF3fXprxK33xVBlp4IIY/BYab/hlK+ekUG07YsJ14SrTH7WhKJExeq+MYmhb0aSG/qA7pYb8jX2bvbun0NvAMfxYfPAzdaXbwwPcH8tDID7oG4UEkkqazbn/quV3W3mbRnjTits7Bt/RDF3pAiLBuV4WSk+rESVONhRN94YCOpFHLk6L+DPVwraMMD7ArOqzyOCP3CJbCXSkdYGE4pTwdgv1zSnha4vYLu82/b7T3HNHRN+w85RW6HOBpOMLHW6qkX6bzW9c4rFPTbWtCVeKc2b5l0/xjql1tNHyWAEohs1emdwrADwePxmorApWh7Nk8LQnURvFEec2ao1WFMwc/DyNQq7k1VV8jT0rpvdnyPMnGuDxQe4dC3zDPnt+VvG2VtavVl7JkJy3UjTuzcP4tPeZQXF4Rqt4SoiNBQvM71s4O355X9Sc2Ri+dHzrneJ9PFioyD/WOhfdkeFEgaWpWT8MsLTmxpHOknWUf09CMRMrRHH9byNI0y28gSEY4pEwSVytl8EM8WeR1huXq/7GTH/eITjuREv/7WuIXq5y4FXSEjp8DAXRh1wTMkaHkxGoRDmrhgJ/Ti1IpuzkiGuO+FtOIC0e3goYptpqBn7+YPNCeePvJwbCfw9c9ESoXJwwlHKvz4EmpZJhgeZdnNOlEYlZrJFUV0utrghVByagdcTn5Vod52bJhWiISTbV2WMGAVhHkRd/CcJVNpxT1fMPs4PXt2MkPlIEoN66I/m1z0CRAoMtj1ANOfPEo8y1zfXPH+UZX+iuCSuNKqUDc4innaNTe0WQ9tMl5/lAqofH+HAr47nrNaY+3/tuZtX5MucGjjQf5WFHA1TbSrqfB9pi9uzk5pjpQE9bHjQjL0786fR5ZIB3CxgAZUe3np2nZyZQdiTkBn1ZVaQAGIPaxCjMcI/mh3ynLuW1l7K5NIcM2pNownclVsQ8v1i6bW8nk4oYTsiIDWkXACfu1CbXGaTPEMztSv3rJ3h+R5KzyJ06dFoKC3vV/gwLqrWNwyPbDiY64tWhqhatMpJebniDhEHJ3pKbKMNV46td0n+FUhrW2qI3bM6IK2/7YTarHQn4QHrp95+rob1/1o2aJoliOvXxyx/87q2LmSL/r90gvJ/dS9INwPs1Zfpx/er1141PxPW3iunMDJ08OyHq5dbw7w5sC3RokA0+0RWvUenVvYvbYwJzxwQwJ6S7Ot7aoE4k6o2oIOPXQL/AJd6rDWipgtHWYoUCnAOVtq1siy0GoYxF/I2iy8VDyE/9rtyZ8tjAMzVw+Jfa9y6tZ4cmgVJHeuJFrpzXuHGpLzh4dorTn/BQh2bB8zDhGkuibTuSUabZ2X3JPc+KKRVWd8emuebHTdJMnIMu5cv0ea1+Tc/Epkm+YcN3b6pJ/Ackfbja1mO0xMWN850sCO8twir8M3JY57DTo+kcqH8f57fNmSzyg8QYPTcwbk/jieRVYq/S59MkAaYHotSGtNiSFp8SK7jgVsIULgcmqpobBhZcNUI1cXqQ6p8CuEp3D3TXqeb23vO26zbpP8oHK7UbhjueW74mY244C4S7T5b1KAZJbEdFpbEvKaBtGh3xJn3MkZj223Tp+pK+5Q65VyNc0y/uy3bTrw13Gf/MhOxLXDh6x6io0/GBudqGWSTOnusJ3pAVbzqoKIzFuSy4glhT7h3NuL9J3Bld+wJ1RWLk1+vA2GYamC2F/4ovnhsbWSOnpa2f6VJ52ZahciJQpmuPOvhYzEpdmZNBvjKzQxtfoVUHhQ5zl0eR5AMM9VFbzJJinFxIAy/2OpHOw1WyNycXeqpAxvtaoCWOYuifFd1miLgLySloYJ05zO+EQGf2oDGhYINUhzZAR+mwyKK4lANV5ETJxeYqYlHy3nYl77bR22IAK+vTaSlFTYUg/UDFJmpvcdsEzkRTtUSuWwGK2AwGtskKvDOmGobIe8/TaFRv3w2VI03ISCT0Wt+Rh7o7wkxES0sIhDSscjqRQPxZYUAIzXPNBNUO6yfqDsWvm+duT9oEWc8k0WD4PY9BWY7tzsIMggXGkzZo2hj7nG7auubK6IsHQhIMhpt2MfubvskKmf5+DKz/QOJay71pNWkFIcqFmvneRuWC867r0Nq31rx89a7n8Ixoj9r0bks/tNje3BVpTPs2WET9cqQrdGhW0Zo40zp1mnzs7WB3Ens6DzzNbIiv2+IgUBoXzwWXBkZVyBth0MPXIZnt9g3Y0JkybaI+GENYGU8ePtM89Xls4OWgo1nNZ+kiH9cwW89UDTmNET7CAIQMn8JyoCqam1ht0RxcAACAASURBVGjLjnNOnBbAUc56Bwfi8eRrVpxFMU2bVpdYPDtEmY64vXaXuemA3RTxJ005O+u6E9CcMdWp2RPMBdNDCEZXy1LCdx5Ibd5rN7TqsRSRThYJWGdzAoZdVWFNGSvmTDOYm912u2Sui6GV/DQdtfceNI+0aNGYbpm6wzuMZEnWuW1/wKmtciaMERPG+3mBSD5uLzSE6RZdmovVezoWT6tsbk8eNy50tMNZfyC2cFIF9TMRYyyZ+B5blwz6/KiQbc3OCdMEuV35OEh2h/JMY6PrAw1HzdF1g7tUOLjyQ092HbE3H/Drkm1EbYV12QLycvIwayGS9/GZnCqFs3J36roHI80mZ15Xoxj8MC55dkK3hBYRTkfC2rvfWLHH/PP66LcvCM2oly/JyHKotjeZD++oYIoN6alrT5aRn/vWxn+zSiS0kMHk5qoPBCjlOPGkceiA9tzexDUnRq8+KexzzYV9LdZND8f2RytRTGDE5MFCsU8ugpntKf1og3/94eQ5R5JvPVmKkKuI5AVXdSTFiwdERK4V6knTXDybqde+c0XiUFtAM6Ce9ANlmJbNMMK3o9Xe1Sq2HEq87fRQRVACSZr2k+tjr+wyfDav6ZIGjDtbCZ9jx0zf0Yh9uN3efDBx6dLwCPnyyW4mVJMOGVVr1qf2HTRtO2wBQrA6J8eLxToQSgo7FTPica2h0d6+J7XkRF9ttZLDPg6SnF+cnU2JhCnG1fia2pKgMmN0YHuj88L2yNIZOEIy6VERhEd7mp3N7YHFY+3J9eZjG/U9zfbssXJ+6a1VnkDV0SP8HR12TfUg8pu75jRoF3TffDDZlvLzVl3siXmjrPG1cNcgNorw4G79aU38G/90GswRNkYHnGCnEmYybFh1vmSlY4lESk8Jw2Ke9r3WXPHx+2LP7IxBcamzMi5erhtHNiw7gS0kxO2rEj97XrQ4gahtJm0rrCcrmdytRIdtxyzexW1HNd+dr/n+uSEJlFf3mt95MLU5FooIEbGxg2IVRozIfcIScdOwTb1DmK2a74H1+hObpTed2TTVU5ZmmgaA2DG2/bB185OpnW2BDk2Lmym/lpKaw9bNlBPVTFbuKby1Kfj7FTFMNbj/gTWpl7YHzVQwYWlxO6nppt9IWXYqagpa0pLIpNHQHl6xDuTloKgeKwSicfvRl5Kb9vkiVjjuaFaSHoKGowVsI2Cyhm0ROSWZSrNItmpt969cnWxohk5ZlCvOT1A6kbI3HoqfPbuK0nJWca+Zo4Pjav0bDkSlslOqUH46T223rJR5ynRt/hT/+Frx+EbnaIcKeudvS42kYTgMPuj3Gb/8UPPcHUT9o/qwaT8MLIi7JTTnpMk6YYPeZ408+PXpliSTJv62Ovbdp31hg4GWfkvUTFwzN/meJaFxtQGUfntc7Gyybnqm/YWGaseHPaIf6qj47AOxO65KHE/kNMOWkrsd8XPlSOov7DdvXcNEblh2/JIp0fcvqZ1YH7At0RAx/7wm+cB2f6vP8JkGb5379YuJySMSNz3rHIj6E7pebUUvna1dsTA4ssqAVw+0pO5d0/rC3tqE36drybgWvHdT/NQZTmWGa0sxJCeOhjO1xpTvrlXmvvawz3ZGhyJvPS04e3wg4MMncTbvT9z7itluVZHEQTLTjuaK5zYlIpb98s4QU7cQ1tQq8/yTjImjeGOWiCXsbQeTK15LddiVKGFkYf2hwJQ9qYXTCVKpWVwj5+WeJ1IRxM1GUVqWbtb5Uotn61PGh0kKYSAQzqZm6+UNyZYOH3OgLoy2WOjFl6PLT9PxrPo0LTIBNLSn5o4LYr0CWSpo14RmBKeOCm49nHh+e+TUmVXMfNx8bmvy5QP6VQvF+BFYx86SmeK+l/UVm83LTlL2cB4t1DVFa9WV+uEjqXEj/YPEdcb111/fJx7tS2FJml8/lWrA8MAZTcY/c4ExuoaUnTwd7gvY/GXdGczZ3Wz9xxNWRwLXAAPLOmNK/MbLfFedWFFfoRMuh68QoQm1+iXzQotGpXY3JpriPh+CJrQtjfby6Top3go9oL20O776MGsResLRVu62k7ZRFxLfOkd//9Lq+kqZeYTjXhPST53mm1VvrdpvtVgku+oJy/fiPm0vLjvvXaxNfeUc/aJ5IZJQMCfg4xFhY9nM8Ngae/Ue00r5TE3rSIgp1clpo+QrUWUHHEGM/sltVsRkznGaouIIGArrvFnJDy4PTarzkfdFLwL0ot6/ZIa/uT2xu91v2U5Kc/a3+va0aI6p2f7YxXOty5cGR9UYtOuW18bW+WZP8DW2JxvbydE1TeFva0nMmyJXG92mnXiCmJV5uENPOlqFP3nqHHHWotDYkQGftEflBbdWV+kzJvsqws7hViYm1sC1hGX49NT4UTJY3KeRfXlXx3Fjw0G/NA8PtaVqwj7ScBSEkVU+sgr2tyTH1ATW7bd+s8qeM9p560IMXYlqbVgjtWdjgx7ymxPq5CJ6brvtmG2VMimZKtGoRdhDJlIOAt8NoilFx4iuHImk/Bz5ILCdrDHVxXvABNPvCxflx4+17W8JhsjpEM78+sh3LwnPHodMsFjk0t51CPhghe1Ns0LfuTAwwd/OHCds/5YG/bntScXBLreQzOrIeRHTjbCDqVXpzk1XaCzjugGiLmi8RVjXz5jh/5dFlomx5wgMwQMxLWEGavTkF5b75k2QIaCuxuUXAJ8503/1Cal2W8TwJmzfPzYRipCSoy6+kP2I0dih2QnTn7D1RROib1kcCknR6WxXcQwxg0sW+QOpRNzBnNPbEhBcxEXqsgXam+aFUVNd/e3seF21fslJgUp/MiJ8CdtpiAWa2rB2OxuuDBsXLgufNgeTJ3rGAmPhjCCzCSC6m3QJaPi0WVONJXNtzFKAdNj6lr0yuaQT+xL+0CL9PRpzqoIyC1jWSBtwXcIwbXSoMqA/ubnjVy9aCcu+epG0XOSggICuXbDAP2mE8/gGY/1eNWSFWh9Z58cu7aZvCRiWXmQQ7TeQSCTtSMTWmN41nUmruqKklJuN+xKPbpRBWZdgDG8ndZTwue/C5B6RsRQRLb4GAqlrl4Yqg/rqnYnndgRhaOLKMyoT/3VVzYgK1zfPmXm4A9xZY/wfWWZ+5wnTcIyY7r9nXfSiExy/O6O5LcsIAf/L6VrT3zk/NWtknqUniY2tnTQpMMJvNcbkggYY+uzE+5bp0+r9ueEpWBKb/JIFFXesTbTaWFLi1QbRkbBrw3Impl1mm5htJGwpvyiWabXRd59eJWVByl735ZLBQZ/Pm9C2Yn+AgZQuvm0sGmMunQaektczy7vfteqwPrrOOXjAJawjGtqcSaPcB7KwNFaXzAlOHpUYVy/t7HwQ0GaSdNMmBKZP6Fh/QBLrSMzHmsyUMX3gpbV7oosmBmnTbTVTfDpRBjlCpr9ebVQFnS+e7Zswolu/KVQvWmD8fbX18GZ8QXPeJBldzBznzK5LIw/x6VyDzSHJwG70oc/9aIjhNwnZyOxpueyAzV8KkO2H7dtekGzsLqjI9GzJCC59ZHUpQJZFVEuTwTQ2C40MpC6c64T8zqOvMXFXY41R8sp52tia/MKjcHCBaVcsCv/2xfZ97TWEqV4+YO9pTs0YI61N+QwOtokxMMgEnlOXziV4Bia5TCmbY01plBFvdipBCUdn5gjzzfMrKJqHh92bVUF9wgjtSJOWFBpIt8UsV37khc5juiQmgfOGNF4w11cbyk83CMGDEyZXPLpbmFItUtk6baYelLHdPHhyE6N2XL2xah9hANm7o1F3OlL9VYwpxIRRndOEnLfSalEVcgHzP5WPmxJcs1/GyRLC2NuUnDzGVRClXRv3xa89oy5dVi5yupcyPQD/1Pbkz1ZqUVP/0tnO8eNyjUOsOP3ty7S/vJB8cKO/sdU8ax5ungxzqu5Ii6f7Ikriopzh3PZ4PoAf+QdmAAB7VJXbsBlXaQIRcLFTTLYlXQgIa0W6kB4F1jUZP4awDN1U/7iPjytCKStoYSdrthlgbTSaFBsbg4KYAV6FllwyzRWezubS7WYjwLx+xQJqJXxElrSKBzfiuMg6kvVhDZSPTK3XFtTFp8gpuVd5YDVzTIWcmJE6RP6sGQGZhFWIoZxwBbE4aQLFTbyg7hGn/ZTtmnDcM5zZo4mt55cH1bmJI4MEHdnigckX0JOzx6q1xfyEhjQ1ITNJPI49ArbWAWF7Xi7/Sbxl4EraaA5LT+0xC5cjmrAsPHp5SRpVVqC2GVU7gRwSdC/5onpQxCVHd4kuBgq14W/a3NFs/scT8a89akyoFj97s1gwMc+Ch5LhioB21ZLAcaPNNfvFfWtSe4+wTATKEre0PamacK3wQbkGV/+Egjoec1ub1BntHVpbhzWqtniLupNksQLZkzSVCkAmerj6R5KAdRzJTsij5nf3qfJVTjxkAxxqk7tVURN1frMmHCTESQ1VT8lNXn4eW6lJXWY6ps/Y2oDIpFtiwd+1chzntMmskxZiYtx0aZzKBUYUkDazXspDmj9yhs7FS3fdHhpBPSupdcvRoBQqFj0dLRRI1obd1f7eL5Z9CEwn6YKjTaoVteEiERpUUAzViupm/7zLbelL9lVi5LC7ZmdDYvUecgLIeIC+TAZ2wHDqw2JynTF3ojZ5NAEP23SQf+ldpsjyKPmKpZzqyko1Mm7ztCn9k0jCuWVl9O5tPlzm98xNfWRZYISrk/OSEZKgTrDuLlvkZ1n5iQ3OoVZn6kj79Nn6iEodOZdwXYXjVlf/enS2ZHwLFSzOzYVqF3uGz0eoamer47O1tpTR0FKS/CyfX3nSjM6u9vyjiC2lpyOhXf+X1NYWuS6q+RzCOEfb7VgUW485SLC+8Y5bEpSWAtTJe1Iq1CwkSS+PWJCi55rNREUD0u6yRNPRpGnJ5HnZLv/bSKuWsu0pI4oTCsFBy/ps+EzUy5yGbtMoL52knenappKHXV9PXXCTlAfZNPujEmHSZvLWz7gZx06WXChqK6WXVFDcpCmA5kHYCdQR8+hu15WeaMpeu9t8fKu16ygWHnErl/WI3Ltbgw9GtQ1N1uNb7HHVsWnjjPaUwTIvcptyZ7UuUmejCylQCEkWityLPAPyqDoSkr7cP9Jhv3rAuGut+dQu2zICx4+xP3SKddaMkMIsr/AoOK4W0uGA+ZNIoRIrt9u7W/TdK+0ZY6wKnz6yxqkMylVu8Me0wPaRk647sFydJHWTSuXPwiRTdfJ9FmeLfLVKvCcxnz3eWLsXpC2/Hl69LTZ3Kt5FIX6gJ5VhX2W4UBOMR0Mrk6g8bQQu9YtkbUUFCWbMmnKkbR2PPyXYegWHut6QohfzpAtV0t0lJNpFSpT7g0U2hDyZ0glIpdv2s45JYelXF8JZlUdVGfAjw2TJkHHxS/Krjn3oLmJmVACCFC0eEw/gQc+nOXDBnLifZcHhdEip7ZxCGTeIUmJxuXYby8gZngJhEse59ZmOl/eFiW67z5lydB9cbUv1gvMkzWNNT+jO9oh/xzad8BmkRnYIeRdqUoi9DaktBPXdzkSS2r6IXJ01df1wu/PMdm3tUT8zD5DPmZL46gX++kqZBdWpOQrDdVkfFEZW6xct0F/aZq3eJbY0kqZhNLVbU0eKMbVSzXYQlDRpDbK69FGc4C5x1FQSeyiCfAEUBlF+5DTviOMn2/pLuLXE+bVXtllvO8sJBTpTMwqgVfgRTNoSSbVHMNwMWKYuaFcFYCAZusLOIF3LCFnjfQ6yIDNsunmzk0wqrifFQuon96a01KThV1+VYJFDtS7ZG/ZF5oowcBey0vmRkojFKWfyopds320c+enJf7JdhVoxvnQb0eKWZUopl3Fhl/MKtQ1RyH9WWkptR6M0JGVbwU+fiK4+QCasXDpDk0+tsk4YY08a6Rtb4w/4HNZPG9qtgy32rmbjcDu+E+cQsBtF6k95KnXBa8b4wPTx0pPhamm3X9mRWL4wrGj/gbOcx9dFXzhgbzgkntipv/L75EdP1y+c5a+Si7ZE+wrBBW36a9rOribrmW32/lZ9bJWYUW8FRerUueH0RrqWdrO2CsnJz+39Vj5glh9iIZT78ozOzZ5sVAWSkQ4MJGfj/uDeRnvWRHcG6O+l+GPLYTsadY0fw5k1VmfjN3mcrISmpI6xTp5kf/USxEHFpHJZWbWehYa86TdGqHS0TuwkT0oVRqPFL1cewEkmcpZWHk3FJUUl65I+iIwwSxkveqF8yB+SesDh8LyixVGwrukksxTgPMq7+DqPbDFXHCBmqPmRBp94xwJxyfFBwlyumdSJocuugsP6DrVZD61LrtwnE2JluwXXf1T1dCdDcLdJNlLIDR9Keo2ptj56pt/v872y3/7vJ83/fMx3x1rzP87VThgvd2j3xt8KmZjp/HV1amujzmLSpfO048ZqrFa/tiuJZKuKMqWLcXH3v/QGqijReiswuPIDupNHGSeMSz2/jaCYaGv33/9c/P9djZFexDfoDV33voOqeXgVc6jcbqUlY5exoUoT1UGizI40NNDXTQnya4rMXfnb6IxHuYMt2RdHVK5flcLHcKQKWBTnYQld2nsSvmutZU0okr/dNkuQB4UpTC6VD6jmCGNWR2H1GKDVulbnxEDYSnt0l0kqHQODyXr5DOuaE4kpSrwyeY7v1OBEy+kjjctPDq86iDEmQRWWnywEQn6tpRV5T2MqMaa3hOnPnqmdPqPif1Ym71znfOJe57sXimVTfdJ0yemVK8hizxHr9ufN1rjBjHnFQlSWhETZFHjzvIsUxFY7O5qFyoB/Ko9gwGB6AUBX8OzfdW7Ip5vCZuuAdu9L+sp1MVftlsKS2XBlLcd5Zm3Hqq1BqRUsZ+ZIa+H0ELfrq9ncgkMsp/PW1lSbzC+UtOzH1dmqZGLXfyqd+DTpClsp8ibLAF+yco6VJh+5O3hKIRJyKJGULr6EWawKAZY43rwlrbi0viJ3YVejRqAnZRmWGb98vjxUQJEvawzgTuUwtEbNloSJ60WWLaHz7KHq/TcjEggEEbk0DyjpkJkOuk5+x0dOC970FmN8pf7Zf2p/eTnlUqgHfPVzw0Hzx0+bDVHxjlPsa072s6VK1nedGVlcTYFuZReXPmDYO+7ZTwZXfmgN0iw+PnT+/JRhMwuIWDJ4073W/kZpuPSF5gpvWePQUevWh3B0OYyU8JR1zalGkFV+IdjQMq6a1GCNtMumROWmvWii4kJKCfS7XNHIKQtQggmu/BSb0l3spNi4x9ZJq6yEwQIyAkKklZWuTEEBDpFAFmGJZ7gOUpHW0RDklAONRTPpyxe/KC4jJ6ZNwLCzfGPEbEwaSFTcEuMq9YksM/SeMOZyp/bKnmS7bSRtUuA0EoiKodkDrblTAht3d+TFFCEgJjZ/vO9Hl/vGVSVufNZ5aBPxxe7xUQO1ucG88SmT9atPvcm3dGqAIKV7dYJM55UrLsOIAOfux3kb7tfNUsjdL8DpSvRJc951fqCuuj2Q0v2mtrcp/P3fR5vQ4BlEKdqGKksU8n/uj+9uqiIvwbD0KSOTZ84P8gjSsJq2cKITZDsOWz7N4KNrWHx1V296v3jIvx0H43c+2cIhfVg/cpzS5fkK+yplUhBOZw3XXZHGXmn2mwQu9ZubetITTTd+0KXHCvWgs2Uph8RoJbbFS0sTTcKX2X3u5iB5YfuheUAjJVJ+Q6Zd9ia1LoXshjbzri2ctyyi7O8g2l7Q/8kdgeMmVe45gN6SF0+zsHbb1jl36XdvD58wTnzjUf3J7XJXCMXUv5aoecOKVMTS3nOiFY3FcuFLe7TrbiRuk2c/GMIjscxtu7x36AYCdNzkwPvPI16YJNERbb9mZ8Wnfty2Y797VnwPns3fuEtlhxWe7/2+7f41gZSb9mZoHe9dbo6rk6ThItvlgpP8QTZu4gFb4pFX9acxFCG46yLnXmrwIO4P7jZvfLj63f/devezEfa3pAdTioPL4pLPcuvn3qEqmscVuVKuTvsNLdSziqwtb0qZKEEcaE0qSULtCtuiTSshl0jCY10NcNAa67+MDWpvZ6tJPpFayM+G5nI7Waq3vhQ91OEnMz0h9DgpSH2wcaUeIBI+dlS4JSLJDUTXWelxyVlX0+oq9OuWG6x4/PQ5TvyTvALScdO57pH4gYjvi2frbzouWBk0Xt3Dvo0eA52ewaAg8+OIKpmTkd2XcvwedPmR1JGyr121vOb9l6X8bAC2wj7Ht6+x5su/TN7xUKIlItlHKehMdnFnms6LVbZn16WuuyX+2MucHKGFTCdo2e86W1y4pKYTvPvn+CmBK05LGWZKY3eWFfjun+ynX2Fw4cUsvSLB0mhzm/WdP0ZePhDwW8bRaM09L5hx3IL0pcJfcp4uTSTYwar0j5okiw1Pp7KS+q0n98g72IHkmaJASxh1l1AIA3i6y8HFGpaFXXsvw78aXWVMCMdJ6OCQ10Yz/NBm5ntF/Ex6cMfG6rtjTeJvO8JYbqidGH4UqRt91D+gMHm0v+FI0kVWzVnZIuQ2rM0a4/vRpeJwq/7Dx2XUgzsPbU2taQxeMstaxBqFI2aPC4+oZMudHGh3WOXFiLufnP1r1lX73T0a6kmZP4+F/MhOSwWhXXt+xdvOZINMkg2MHBzQ0Bq65f7Ax26I3LcieriZYy4YBhKubLKs1JdEUuqcVZtiX/5lx5d+pa3d5ZehXswM2z73hNgHLnBP2esijJzVDPHBSypnjzOTeEeO1RYPfPtP2h8ejgKEAXZzt5S343CS8vb95ldvj6zYVBFI+diKWum3PnZRiCOVuxnQNcdkfDbvyOYOBMVcfVVizAy2keyez1mCE6TfVZocSvIqo9GdhHLxyrojS4Akato1EdXFIuPJkxEqCSFkk0djP7uDzdXMa52+IX+Y4w9H7P94uOOnzwszoQdReO4OD5mCmBsCKYgHgza6zr99b5RQqkIhL97u2GrLpgcun23fuSn03E72ETu3vGRV+RIfXhIgQq2iBVNHBit8YtWuCMiAieqfAni4xZw6pnPdqSBG/Xw4uPHrTKRQQez6+vAV1ZNGx379D6u1I4Qdjv2452jVD+5K1lUnJo8SY+pEbRXLdwyJHo05jS32/maj+ahummxAk0PEeFfpiXeca73zwqqwTE3NmlU0dk196krjG7e1oU9IhE4mg7+83773pfj8aWJ8vW9kjQ8Pqqk1tfOw9douvTVeKdcuCBI60fecJZbO5uSKjIkKObDIkJQxPVcyil2wo7RHXO8iLztkA5Bmi8zzke585jPy4WjaPV+1hGYpBd/TslzKdD2+wnMtz2WyLMfAouJc/Sb77DhXzw88siFyJFULuY9Y4a/+I7l4YnThBP/Ueg4fsQ92GJsb7Zf2if3shtSMaiP2yVONn6/SW5M+oh0yEtKXS052ulhyQs1jL7Wev7S2a6UuDwgXNXH1IuPeTc7dr9ov7YkfjOo3XeojuK5GH1D0eea48K7G+Ib9sfmTZOoKqUJ0DCettlISuB/nBOVBJd+tYyg/dIiN9AFx5dnhBTOs6++I7DnI3s+QKQ+Q97W0+1rbhbaL6UNmLMGDsBUxHRhYEpDjwh1fSNh1VW2ff3fF6fN5hUUmp3f2TJHylNmhX3xa++LNHQeOVDLH6rZx4FDFvma4WsabOO3VJmGO4ZbLk6ZuGSF/7OMX29ecU+NyXqdA8hymlBYUud9kflglEIo6TMZ6UjJlEbtLcht7OtjBKf9mmYeOzmZSVLRFIne+Mcu5hyJg6Tjp2H4pvcUMFWSVjBwZL5O6tau0JmaP8f/0LaFP3R1rtUPYd/FEaMVu++k9SDJYsJWCjB6dnHjErlIkv3i6fsrU4K0vYI2TeidHKAerIjdAdHRdYOp4e9dBcsdl4kavl6bNHuc7d1rLgztq9d3OoonWSeN75MKrcWfL3bZD8Zd2ti+eVg3KvLjh5V2xCxdWFadIrw0Xf3CM7LdORORpZgyYNmOScfNnq75yrbZgTjxgJIk4u9zM4id8I20IMrl4UwXWuMsNDI41a1LkI1fGb/1K9RkL1P6c/GyiFPqU8cEffjx45emR6mDC5MAMnTw2O8BZGg5JojYHMpDfjQz5TfvkScnvXqtf/aZqxi+T0G6zJkshrnpgOivOyZyrAWSDpbvMrMzeh4CAPvFxEjD9KdyAbvhIg24lyVr1J/Vg0cQY4BOX4aQPU7B2o1sytaDwBXyDU4Nk1jfBys6kTtX3+ZOC/3WlvmBMq49NFdKYc61lEcR0cD07QuqJuTUd3zrPvvSEEEavzTZf8jLphcyeKumSBmLGNX1CYPehREOz7H7Wo/RP144Vnz67JmwlaefimSzgyrYyy6ufM8cGR1cH1u+PMN1uPNCx/AR5OEluSXWzLJ9FIrxlaSMXiGujyu4z+PsaE/c8HX1+baqxJZQ0q1LSZ5abFzCsAlqkvjqxcFbwrWdXzJum3s0gGbvojKIoi+wdajZ/94/WZzaII9GQY5HSy2YiFjbMar3t+In6uy4MnzpPnUMPyB4CCYRXtrVu2kNeo/S5TpsjZkzo8d6mrE7hXD37WmRfE+WZqLUzF2nj6uT++9y+uz3nn/3ihsSOZpXqHT9/UWhkrTwCAZ5tjViPr4uxc5vs7PrK5DknshO716xQ8OStFve/FDPZYGHbE+qTb5pXU4A+lN/RGH1xK2nTnGdnzZlgnzS1u1+ddNO1h9dF7nimY0dLdYcvmJCUIdcjPiGcfPti/zWnVLj7IAmIOY9sTLJvnBlmUm3ijDkjSkjEdKJx69WNLQyhHHsJmKnTvOtp32XLONFSLkdJ1pCOp/rjfro/2Qp208qadQ3a9y+M1LKtWA6Lq0TdknJUCblI/Su2H/Wt2KW/7QS7vkKeScak6R67Z4yq8dVWcJBI/pk370gVvTk08qPQUlKk+Il4WXuHaDjKbi1ysuSeEo6WGFWr4w5JP6erz6V3Pg0c+JGoDeSjETNlsiiks9I6tl4npilz111i5oLttLS7TgAAA3JJREFUlHAeMcTuZ95iqiNuF7Ln/VyY6cJuefmReScNX4FSz4q32wUrE1SBpnPbzSrc1bqTSnHso3O4zWJAINSoKn1crVHpbkjPQjv9s0C7qgzAiQw1HyXnx5UK9w//v7Y9eaAxNWeaf+p4FJ0UClfh8ynbcsvJv/e9pj+/y/ze5TIzopN66QFUReTGFmfDwVRT1LmM/b9yHU3+J+1pjcNh8MDLHIkbSvnJHIYudspiKUm23scrE0CR7zn8XXSsiwB8IzzOFrbBoRlD8+rm1oljQ+t3xGqqjBNnVSuVkjXuxE6f2ZoglHrFKXkMAUxJeOVQu/3YhuarTh715MbmSxaNHhx8e4x8CW7xMeEUV1A6/x+MBo8BKQcD7aGFqfj4mODA+GhnnVS7ZU/subWtk8YGpowNuaZdt2kAMuNq9LquUyIUVmlteajd3Ho4zknH71w6BpuYIxmOCdqDvH/h2PTBa+V1TwE5dcrY0pwp4eSE8LptkadWN150ej1n1rn5KZ1SRH49h9F1mtauxYLUsW3p8fVHDb9+3pxaeTqnS4tSl+AGTLjhon8G3BEPwOuYAnIhTBrq8gr6ncVzqxceV7lhV8e2vSIc1jj9FLclFPI1tRIPFfuDAkc2muRcOK1NnrFinz6rluNdXV3l+klS5orHS8tCL09+ykJGD0jZKKBkIBjAEapiGYd3m7I2G03YTR1Oo5Qfh+1xo6p99dV+4j/smZNRoAwzT+FxjKRnsPeflo2oHqD/0xSoqdDU8aKZvSRihiejjt6uDBmjagWvaOEVSrPk4qky0yie8TWj8niZMHosruESfzsWffXaGJYUwNySYQCZIJmWivyIkkmdtPQ5E4us4QCNVD258lMMYP5m+nLXs9/6Qi2v7CBQwPV6ikhOutlSEguBdsxewZ1/gXwQqOSB9CgwcAogZqVK2sAbKwWCJz+lUMkrMzwoQJQuJ89jaDHz5Gdo6e+13gcKyDD38FI/g79/uw/k8Yp6FChMAdZLh5n+8eIHhUfMezqMKDCmXr64eVhdXvx6WA2Hh0whCqhsN0qUHq8rBK4czzz5KQcVPRhvVAp48YM36sh7/S4HBTz5KQcVPRhvVAp48vNGHXmv3+WggCc/5aCiB+ONSgFPft6oI+/1uxwU8OSnHFT0YLxRKeDJzxt15L1+l4MC/x8RLakCDAX8mgAAAABJRU5ErkJggg==;" vertex="1" parent="vPIFIaNN0rYwnKn2M_h0-65">
          <mxGeometry x="13.219999999999999" y="14.5" width="93.56" height="51" as="geometry" />
        </mxCell>
        <mxCell id="vPIFIaNN0rYwnKn2M_h0-54" value="" style="shape=image;verticalLabelPosition=bottom;labelBackgroundColor=default;verticalAlign=top;aspect=fixed;imageAspect=0;image=https://cdn.worldvectorlogo.com/logos/docker.svg;" vertex="1" parent="vPIFIaNN0rYwnKn2M_h0-65">
          <mxGeometry x="100.11000000000001" width="35.7" height="30" as="geometry" />
        </mxCell>
        <mxCell id="vPIFIaNN0rYwnKn2M_h0-66" value="" style="shape=flexArrow;endArrow=classic;startArrow=classic;html=1;rounded=0;" edge="1" parent="1">
          <mxGeometry width="100" height="100" relative="1" as="geometry">
            <mxPoint x="610" y="425" as="sourcePoint" />
            <mxPoint x="660" y="425" as="targetPoint" />
          </mxGeometry>
        </mxCell>
        <mxCell id="vPIFIaNN0rYwnKn2M_h0-67" value="USER&lt;br&gt;" style="shape=umlActor;verticalLabelPosition=bottom;verticalAlign=top;html=1;outlineConnect=0;strokeWidth=4;" vertex="1" parent="1">
          <mxGeometry x="150" y="385" width="30" height="60" as="geometry" />
        </mxCell>
        <mxCell id="vPIFIaNN0rYwnKn2M_h0-68" value="" style="shape=flexArrow;endArrow=classic;startArrow=classic;html=1;rounded=0;" edge="1" parent="1">
          <mxGeometry width="100" height="100" relative="1" as="geometry">
            <mxPoint x="200" y="425" as="sourcePoint" />
            <mxPoint x="440" y="425" as="targetPoint" />
          </mxGeometry>
        </mxCell>
        <mxCell id="vPIFIaNN0rYwnKn2M_h0-76" value="" style="group" vertex="1" connectable="0" parent="1">
          <mxGeometry x="460" y="490" width="165.45" height="70" as="geometry" />
        </mxCell>
        <mxCell id="vPIFIaNN0rYwnKn2M_h0-55" value="" style="rounded=0;whiteSpace=wrap;html=1;" vertex="1" parent="vPIFIaNN0rYwnKn2M_h0-76">
          <mxGeometry x="22.730000000000018" y="10" width="120" height="60" as="geometry" />
        </mxCell>
        <mxCell id="vPIFIaNN0rYwnKn2M_h0-56" value="" style="shape=image;verticalLabelPosition=bottom;labelBackgroundColor=default;verticalAlign=top;aspect=fixed;imageAspect=0;image=https://cdn.worldvectorlogo.com/logos/docker.svg;" vertex="1" parent="vPIFIaNN0rYwnKn2M_h0-76">
          <mxGeometry x="122.84000000000003" width="35.7" height="30" as="geometry" />
        </mxCell>
        <mxCell id="vPIFIaNN0rYwnKn2M_h0-69" value="" style="shape=image;verticalLabelPosition=bottom;labelBackgroundColor=default;verticalAlign=top;aspect=fixed;imageAspect=0;image=https://miro.medium.com/v2/resize:fit:1400/1*nOChrz2ZOWDcElFHCJ4Yyg.png;" vertex="1" parent="vPIFIaNN0rYwnKn2M_h0-76">
          <mxGeometry y="12" width="165.45" height="56" as="geometry" />
        </mxCell>
        <mxCell id="vPIFIaNN0rYwnKn2M_h0-77" value="" style="group" vertex="1" connectable="0" parent="1">
          <mxGeometry x="670" y="490" width="135.81000000000006" height="70" as="geometry" />
        </mxCell>
        <mxCell id="vPIFIaNN0rYwnKn2M_h0-57" value="" style="rounded=0;whiteSpace=wrap;html=1;" vertex="1" parent="vPIFIaNN0rYwnKn2M_h0-77">
          <mxGeometry y="10" width="120" height="60" as="geometry" />
        </mxCell>
        <mxCell id="vPIFIaNN0rYwnKn2M_h0-58" value="" style="shape=image;verticalLabelPosition=bottom;labelBackgroundColor=default;verticalAlign=top;aspect=fixed;imageAspect=0;image=https://cdn.worldvectorlogo.com/logos/docker.svg;" vertex="1" parent="vPIFIaNN0rYwnKn2M_h0-77">
          <mxGeometry x="100.11000000000001" width="35.7" height="30" as="geometry" />
        </mxCell>
        <mxCell id="vPIFIaNN0rYwnKn2M_h0-73" value="" style="shape=image;verticalLabelPosition=bottom;labelBackgroundColor=default;verticalAlign=top;aspect=fixed;imageAspect=0;image=https://www.southeastlinuxfest.org/wp-content/uploads/2016/04/postgresql-logo.png;" vertex="1" parent="vPIFIaNN0rYwnKn2M_h0-77">
          <mxGeometry x="5.610000000000014" y="15" width="108.78" height="50" as="geometry" />
        </mxCell>
        <mxCell id="vPIFIaNN0rYwnKn2M_h0-78" value="" style="group" vertex="1" connectable="0" parent="1">
          <mxGeometry x="850" y="490" width="135.81000000000006" height="70" as="geometry" />
        </mxCell>
        <mxCell id="vPIFIaNN0rYwnKn2M_h0-59" value="" style="rounded=0;whiteSpace=wrap;html=1;" vertex="1" parent="vPIFIaNN0rYwnKn2M_h0-78">
          <mxGeometry y="10" width="120" height="60" as="geometry" />
        </mxCell>
        <mxCell id="vPIFIaNN0rYwnKn2M_h0-74" value="" style="shape=image;verticalLabelPosition=bottom;labelBackgroundColor=default;verticalAlign=top;aspect=fixed;imageAspect=0;image=data:image/png,iVBORw0KGgoAAAANSUhEUgAAAT4AAACfCAMAAABX0UX9AAABhlBMVEX////xWilBQEI+PT87Ojz5sRL5tBH6txD6uQ/6vA/5rxL5+fnzbCQ1NDb6vg7yaiX2jBv2kRr3lhn2jxv3mhj4ohb1hx3v7+9JSEr3nxb4qhP1hB74oRbzcSNOTU/c3Nz0fh/MzMwwLzL0eSF4d3jyYSeqqqr7xAzxWCZiYmO/vr7xVB7l5eWLiot/f4ApKCv+8++VlZZbWlz7yQv97ObwSgD95t9qaWvyYBSfnp+1tLX2jQDwTxLzd1P1i2vzb0byZjf83dHzahH4spH1fQb+8+b96tP+9M74tqT2mH7ybED3oYr6y7/4r5r6wrHzeln1kHL4qpX1glTzdT4dHB/zbjbxWgT1jWD0fEf2mm71lGj71MT3qYf1ilL0fz76x6/0cgD6v5383sj3ml/6zLP3omz2kkj5tIX3omD6xJv2jzH4s3j82rn4qFf4rWn3nTb4r1T6xIn816n7zpf94bz5wG74qj/5tk37yHf5tz381Y77zHD95LD7yj770WP7yjb93oj+7LsjkiSNAAANPklEQVR4nO2aa0PTyBqA2ya7egwRVNjWW2pjraVpS1tLSy/cKikgiLru6rrIiqi466rclD2wXvCfn5lJmkwmkzTtejbFzvMFSN6ZTh7euTaBAIPBYDAYDAaDwWAwGAwGg8FgMBgMBoPBYDAYDAaD8e0zW/K7BceZheDMit9tOLYIi/Vksr6Y87sdx5PctBIEKLeKfrfkOJKbqgcRyiTz1zmLuj3g747fbTl+LChBA2XJ79YcN4rJpKkvWF/1uz3HjCks+eDwJ/jdoGPFbBBPPuBv2e8WHSusyQfTz+8WHSvGgwTK7eUSvn7OlWaXl2d9a19vs1An9QWVenJycUVfAa4sTivj9brCNiQ2cstT43Z7kKRSH59eKQUWknUFDY31e343ttfI3Z5WFKo8XWF95o7SmlaSkyz9cHL3gvWkizzkzAxIBvt49AOj/8rS1J07U4utaWFlRmknz0q9b4+zVpfuBMfrikZdmVycLU21zTySPt3NCQvJccWSaXBacBvzHPRN+f0kvlCc6TTPmD6MUgf6kgDQv5NJShHlrt9P4gse9QFv9Xrw1vQdwOR0sF4nZ5b6gt9P4gteOi9IueStxYXZUrGYgxTBRH13RrGsCpVFv5/EF4rTbVd39eDiMuWQvrQwhefgeF/uO3KT7vqSyuSC44aitHTLFKj0ZfclD6SIzJtZdj0eLd4zVj1JpR8Popdc9Ckz7TMqt5RUWv768EWEFfqZCrI36cnH6rTuT5nqv3ODku08tMX4ktevNRb1PV4/HlvRFsGwKyZve69jRf9CpN5/3XeRPviNd2APdGBtAOzDrdsyVV+9I3tgDLiFqhnvu+/hcrSFc+dpVLoGq0n23/dwt+vXSJLTnc+hs9eSoKS3r4HT0VgsGu74I3qSos3etQfdHL2vKrDoj+3CwtW4FAlxXChSyEe/hVcW7k0Q9ia62/+jeh64T77hvCTzXAjCcaJYjnX1SRgCIOxrIgs/E/ruO3Xd0urC3R/v3//l4d2FVYqmh8DfhNupvZCQRc2dDj9WiHbf7lScH4P8FO+6jq/BMtF16Vu13PKvP09MaJkKfv788CZ5DlOC/4cfnYfNcJnX8o4XAdrvfCjRZavTcV6rIiR2/y/4GuQeXhs0cUi+lfsPgDozCiq8S5wSPHkweG3CcdyMFnjkTpYyiVQ1Eedl9LeY7arR6RDfSuG4v0NoaRBngpZ8s79MDNqZmHholQWiJm46fEpa4lG25Vu5IlTLsCvzo920WUCZzMuAn1LdVPD1WLGomaAk35NBmj0YPGCxtTowOLhG/xAB5Z5YxjuakArxfCHdTZtTMrQ3mooBfJ6/Hw7gQh7ZAx49oMuDPFjDJ5FfJwYH6B+SEaG9PHE1nJW7G7hg8ondDptflwGchv3U83FjwI3LWAeebQw0qINfDM64fMV2XejOXrjAhbjRnlg2bljs/Gb7XuMmdr+BIP2ZxoW1RuM57UNg1+1ykqCRlriQaP9n+MHTxmWThq3vPjduNxprj28+vfn4198aeBFww/T3pNF4QvmMGOi6XKTLBgrhdJpYGUcjHK3vUiIt96jp6lbIA48t+p4Sd3O/te5cfjGrzyrF2UeXrQKNlM1dbtCm3gxIPr7apiHReDabCgixSiYLaC1Hovl4QZJG4wnwiAK4noGPCvVxoxmEkdPRCiVSqKCq0pVyQSqU87Z5ilp9BwhrlkQi+25LbuOF5U7uKS6wsWZM189o+sLwaQvtGhYb4+VENSKLPEDWthKx8pjIcwBe5POCwPNipKUPLCERY3rpuBEp58MC+CFBV0Jc5MfSee0euJWxZKC1+oAMCnWoL3cV13eVuFtq3SWzMlB6hPt72br8nKYvJlNmXVoUJ+k74hAHt8NCpbWzQLuL0VgERBj6dGRUuBLCIwsoUtPHg/8cj1ViJqCt+pBefQcU169ikKu2m9pd6nzwAitpzLeldYq+BBj65LbHA1Ayp+3qeBFNq2i1o2UZmrkjFn1o7yeKKPvyMmeNDGH6Qq17yFLZyD9b9V3oe4rrW39J3NVurttyz1Z0rdWol5SpAw59otmudMxGVNeHtnGFcrmcaj0eJ0bimUw8IupZaejj49UEAtlDkSEtUj/SMfWhSrOZOMpQYwHgXL1nNp7huXd1nXj2DU3QM4fSL01/69T1ig7sQBFz0MnLPIEoGfr4QiwsCDA4hh6Pq8AJU0jn9cw09GEzbwztnkN5ItLUx0WqcGqIoj/0lbpWfYhWvVdeWnquXYKWX1ccD/E2zaKbbfRJmD4xRMAZ+nijb6FtHi8Z6+oYGu9o+oRRGBkxIqMcR+gz9jbwLz4DfwuPOlfvjeKz9StW5gh9L9BFskeblLCyG84fRGafyGEgfYWAPvZJxsieQmtFbFcSFR30wQ2wNRJNzKY+c7sD19vaGgBVL9Gr94S6OXeFxOogtwmvrbuIeWlU4SKZHPsqPJ55EZhzcJkC9WmZgYjbtrV5ka4vCyMte5CKiOvD1cKmhOAN+67ZrN4L6pzdHqFPfYXEuFSSM+u46BzlOvMaqxr0i7m2HoPJYIlEqWPXhzbAEctjCyHOsnAxb8KmoPNVWD3vUL0HaLl3ce61JaZ4EV51G9UCL8z0c05SJMZpiwr/6WJKj5KNw7v0mJ6UGGgMtelD03DWuiHL8ri+Uas+OBKmZZfqPfD73EU7xNhX/AFe+9OtmudGNXN/OAaF4VDkcEASHuX03mXVh7oysdTOUPXFQvZFOei97vpcq2/PHzR7pAL1FbzmMqgFAs1XRtkXzlFwdOLpp8IpIw3s+kgpLvqI3PakjyzkXV/zByqEqtwmvOaafYHNi3rZi787f0uEprkC7Y4ABq6QjEY8SucljrhcOm/GGplp13mjskv1bfmdru8HYpz7E15741rTplH2leocBVcSMm30y6DpDvVrqz44tnNdTx0Rro2+fzR1vB5y0FezDlB/zIFrQ65VvTH1NZ2jqmhRZT+yQtf1oyxCH1zWipYOn+DpCxe0xLHUXbUuXGj6wJBLVu954XJmyAFi+lTnwLWay7oP6DPKnnPRp+3cbUd+CQ77ro3QhxTgp1xhnqPrq8rEc8N8bKfPrfo2vK456asRAx2S89atLm/60JEf3K7j55XprBjCNhqEPuSAN588Oso7bdpQpKkirH2j7K7PVn3BrL4Nf9bOOTD0xjr+b9SGzg3VXjvUA9kaahU946YPzI/oUEiqtASm8xKyZ6ynCX0oqeAJgvZXSju0ox4ZaENAIUVEuupzq74NzvrOkT0VhZ5xnhTULaPolsvUEYD+tLcKZClTSVQykva+Cx+xLFVwfQEtOWUpn0iA8NYxFEWfEZmxRLrrc6m+HVu1Mw7UiHlW3YJXnc1smEW3XLMPPLOEveOinyrz2DtCNn3aqwQoHoVzDmMf/L5YtEZ60SeURYfq26FuO/sjJDRhZG3Lqf/umhXV3rinXyCcGWudxeseZfybGZs+YGUMi+fFhMTR9QWErGyJrEba6yOr5xOS513H29pZOjVyomhuwdDa9mtNjrq3jVvaxotut/EXiGYjMq+dxgF3kazlS/KYzHEysTVJFfT3ATmej6eFCM+39HGy9YvK1KgRKcfTYKHJt/RxPK4PfojxsVWzkAgKgR9e97w7DvrO1t4Rkeo+Ul3beruzs/N2uIbnp2r5L5DzNoV0Ar5dGgpFpHiV+NYwFpKkCLmzC6fK6GVUKRsTwBQrSWiCjYJfIgkyMq69tgojAzAS6ctKklQ2nVQjkhSKOlQv6dV7YWO4dnaYwtl92+ZrdxhaGtYUDeP9eKdmLew2R5ttjkajHbwYJMBXoT29kOE98p8WAqg7NHuAHVtobnd7C9obPr+/h3dQdZ8out95M44vzW1q/g2T3ReiNjd2dzea1szc81T020Xd2R8+b8ejhKa97Pv/b3t7DvXd+/3zlwgJI+2mUI33dvEeS35TqO9GLlnZb7MERuydP3+JxGviflvsXRqxcGmkvYbdEQrnD/+F1vYeF2wi2vl7R7N36S8vafvt0bT7e+86jO3R7F3Y+7fa22vsjVwgGDnYdYxW35PBwN3BXh/OGy3+IvUB/nLowbsHZOB/D9/1Z7dtoZJKEAe7NivqO1tkv632aDRP0fxdOPX+EDc4f2jXfKqPO61J88IpKsDPwafDvd3dw78P4B82+nKtZ2PeQV87+nOpZ+Pw1HddcOpvv9vdI/zdjb3vmD0N9eD7zmH2WqgnT3Qq78T3bNxroZ7omJMf/G5079A8cbJDTsz73eYeotmpvZMn/G5yL6H+p1NO+93kXkI9TQIEufLR7yb3EupHUs/R0cfrbvqO/G5yT/Hp9HWM05/hxDD/5dNn09d1S8D1L363uKc4wvSc/oi5Uee/fPjw4fDouhXWdy3Mm/o+faGdQRH+jv7tBvY4SMqNz0dUd5BPuL0b7JTPyvyXL/PuTo5uGFxnO47OmTf0sZGvKz581vSxrtslYC1z4wbb7naPOs/sMRgMBoPBYDAYDAaDwWAwGAwGg8FgMBgMBoPBYDAYvcL/ACq1q3egtQPHAAAAAElFTkSuQmCC;" vertex="1" parent="vPIFIaNN0rYwnKn2M_h0-78">
          <mxGeometry x="5" y="12.5" width="110" height="55" as="geometry" />
        </mxCell>
        <mxCell id="vPIFIaNN0rYwnKn2M_h0-60" value="" style="shape=image;verticalLabelPosition=bottom;labelBackgroundColor=default;verticalAlign=top;aspect=fixed;imageAspect=0;image=https://cdn.worldvectorlogo.com/logos/docker.svg;" vertex="1" parent="vPIFIaNN0rYwnKn2M_h0-78">
          <mxGeometry x="100.11000000000001" width="35.7" height="30" as="geometry" />
        </mxCell>
        <mxCell id="vPIFIaNN0rYwnKn2M_h0-79" value="" style="group" vertex="1" connectable="0" parent="1">
          <mxGeometry x="300" y="490" width="135.81000000000006" height="70" as="geometry" />
        </mxCell>
        <mxCell id="vPIFIaNN0rYwnKn2M_h0-80" value="" style="rounded=0;whiteSpace=wrap;html=1;" vertex="1" parent="vPIFIaNN0rYwnKn2M_h0-79">
          <mxGeometry y="10" width="120" height="60" as="geometry" />
        </mxCell>
        <mxCell id="vPIFIaNN0rYwnKn2M_h0-81" value="" style="shape=image;verticalLabelPosition=bottom;labelBackgroundColor=default;verticalAlign=top;aspect=fixed;imageAspect=0;image=https://cdn.worldvectorlogo.com/logos/docker.svg;" vertex="1" parent="vPIFIaNN0rYwnKn2M_h0-79">
          <mxGeometry x="100.11000000000001" width="35.7" height="30" as="geometry" />
        </mxCell>
        <mxCell id="vPIFIaNN0rYwnKn2M_h0-82" value="" style="shape=image;verticalLabelPosition=bottom;labelBackgroundColor=default;verticalAlign=top;aspect=fixed;imageAspect=0;image=https://www.southeastlinuxfest.org/wp-content/uploads/2016/04/postgresql-logo.png;" vertex="1" parent="vPIFIaNN0rYwnKn2M_h0-79">
          <mxGeometry x="5.610000000000014" y="15" width="108.78" height="50" as="geometry" />
        </mxCell>
        <mxCell id="vPIFIaNN0rYwnKn2M_h0-83" value="Metadata" style="text;html=1;strokeColor=none;fillColor=none;align=center;verticalAlign=middle;whiteSpace=wrap;rounded=0;" vertex="1" parent="1">
          <mxGeometry x="330" y="560" width="60" height="30" as="geometry" />
        </mxCell>
        <mxCell id="vPIFIaNN0rYwnKn2M_h0-84" value="" style="shape=flexArrow;endArrow=classic;startArrow=classic;html=1;rounded=0;" edge="1" parent="1">
          <mxGeometry width="100" height="100" relative="1" as="geometry">
            <mxPoint x="430" y="480" as="sourcePoint" />
            <mxPoint x="470" y="450" as="targetPoint" />
          </mxGeometry>
        </mxCell>
        <mxCell id="vPIFIaNN0rYwnKn2M_h0-85" value="" style="shape=flexArrow;endArrow=classic;startArrow=classic;html=1;rounded=0;" edge="1" parent="1">
          <mxGeometry width="100" height="100" relative="1" as="geometry">
            <mxPoint x="542.56" y="495" as="sourcePoint" />
            <mxPoint x="542.56" y="445" as="targetPoint" />
          </mxGeometry>
        </mxCell>
        <mxCell id="vPIFIaNN0rYwnKn2M_h0-86" value="" style="shape=flexArrow;endArrow=classic;html=1;rounded=0;" edge="1" parent="1">
          <mxGeometry width="50" height="50" relative="1" as="geometry">
            <mxPoint x="615.81" y="530" as="sourcePoint" />
            <mxPoint x="665.81" y="530" as="targetPoint" />
          </mxGeometry>
        </mxCell>
        <mxCell id="vPIFIaNN0rYwnKn2M_h0-88" value="" style="shape=flexArrow;endArrow=classic;html=1;rounded=0;" edge="1" parent="1">
          <mxGeometry width="50" height="50" relative="1" as="geometry">
            <mxPoint x="805.81" y="530" as="sourcePoint" />
            <mxPoint x="845.81" y="530" as="targetPoint" />
          </mxGeometry>
        </mxCell>
      </root>
    </mxGraphModel>
  </diagram>
</mxfile>
